<?xml version="1.0" encoding="UTF-8" standalone="no"?>
<!-- Created with Inkscape (http://www.inkscape.org/) -->
<svg
   xmlns:svg="http://www.w3.org/2000/svg"
   xmlns="http://www.w3.org/2000/svg"
   xmlns:inkscape="http://www.inkscape.org/namespaces/inkscape"
   version="1.0"
   width="449.06467"
   height="323.5369"
   id="Logo_DPD"
   xml:space="preserve">
   <path
   d="M 415.49226,124.59535 L 437.96076,111.63754 L 437.96076,42.545851 L 378.08075,8.0249233 L 355.62055,20.974429 L 415.49226,55.487046 L 415.49226,124.59535 M 250.90319,124.57043 L 228.44299,111.61262 L 228.44299,42.520932 L 288.32301,8 L 310.7749,20.957813 L 250.90319,55.470433 L 250.90319,124.57043 M 393.10682,163.47708 L 393.10682,189.39269 L 333.26002,223.93854 L 273.42153,189.34286 L 273.42153,163.43555 L 333.26002,198.03123 L 393.10682,163.47708"
   id="rot"
   style="fill:#ed232a;fill-opacity:1;fill-rule:nonzero;stroke:none" /><path
   d="M 265.89604,141.88904 L 265.89604,64.117278 L 333.16866,25.243856 L 400.54095,64.133891 L 400.54095,141.87243 L 333.22679,180.72924 L 265.89604,141.88904 z M 288.34793,68.461466 L 333.22679,94.37708 L 378.11397,68.453159 L 333.22679,42.529238 L 288.34793,68.461466 z M 325.73453,159.07474 L 325.73453,107.26013 L 280.85566,81.361129 L 280.85566,133.19236 L 325.73453,159.07474 z M 385.51487,81.444192 L 340.6277,107.35981 L 340.66092,159.16612 L 385.5481,133.26712 L 385.51487,81.444192"
   id="paketbox"
   style="fill:#292526;fill-opacity:1;fill-rule:nonzero;stroke:none" /><path
   d="M 11.109004,42.687058 L 40.671079,42.687058 C 61.752435,42.687058 74.353071,55.487046 74.353071,76.776059 C 74.353071,99.311015 61.561384,111.4465 40.671079,111.4465 L 11.109004,111.4465 L 11.109004,42.687058 z M 28.460833,96.578247 L 36.933245,96.578247 C 50.522335,96.295832 57.001232,90.456513 57.001232,76.676383 C 57.001232,64.167115 49.185021,57.555312 36.933245,57.555312 L 28.460833,57.555312 L 28.460833,96.578247 M 83.489983,42.687058 L 117.23842,42.687058 C 130.03842,42.687058 142.09083,48.559603 142.09083,64.831618 C 142.09083,81.876119 132.36418,88.521148 117.23842,88.521148 L 100.87504,88.521148 L 100.87504,111.4465 L 83.489983,111.4465 L 83.489983,42.687058 z M 100.87504,75.20617 L 114.5638,75.20617 C 120.12071,75.20617 124.70577,72.348808 124.70577,66.085868 C 124.70577,59.640189 120.02103,56.4838 114.5638,56.4838 L 100.87504,56.4838 L 100.87504,75.20617 M 152.04176,42.687058 L 181.59553,42.687058 C 202.71843,42.687058 215.31075,55.487046 215.31075,76.776059 C 215.31075,99.311015 202.51907,111.4465 181.59553,111.4465 L 152.04176,111.4465 L 152.04176,42.687058 z M 169.41852,96.578247 L 177.89924,96.578247 C 191.48002,96.295832 197.96722,90.456513 197.96722,76.676383 C 197.96722,64.167115 190.10948,57.555312 177.89924,57.555312 L 169.41852,57.555312 L 169.41852,96.578247"
   id="text_DPD"
   style="fill:#292526;fill-opacity:1;fill-rule:nonzero;stroke:none" /><path
   d="M 74.679089,284.38948 C 76.862397,284.38968 79.045842,284.38837 81.229565,284.39017 C 81.230119,286.57362 81.229775,288.75692 81.229775,290.94031 C 79.04612,290.94044 76.862812,290.94078 74.67964,290.94009 C 74.677777,288.75651 74.678737,286.57299 74.679089,284.38948 z M 192.25824,284.38955 C 194.44121,284.38948 196.62465,284.38851 198.80893,284.39017 C 198.80893,286.57362 198.80866,288.75692 198.80907,290.94031 C 196.625,290.94044 194.44169,290.94078 192.25901,290.94009 C 192.25665,288.75658 192.2579,286.57306 192.25824,284.38955 z M 325.90225,284.38948 C 328.08472,284.38968 330.26817,284.38837 332.45279,284.39017 C 332.45237,286.57362 332.4521,288.75692 332.453,290.94031 C 330.26851,290.94044 328.08521,290.94078 325.90287,290.94009 C 325.90017,288.75651 325.90106,286.57299 325.90225,284.38948 z M 11.10409,285.07315 C 13.450894,285.07322 15.797623,285.07191 18.144494,285.07398 C 18.144085,295.09933 18.143667,305.1246 18.144703,315.14994 C 15.797832,315.15251 13.451027,315.15064 11.104156,315.15105 C 11.103738,305.12509 11.103881,295.09919 11.10409,285.07315 z M 219.39772,285.07378 C 221.51568,285.07205 223.63456,285.0733 225.75425,285.07295 C 225.7494,288.69684 225.76373,292.3206 225.74649,295.94442 C 227.66435,292.18305 233.09963,291.56556 236.28323,293.99922 C 237.92289,295.26455 238.39926,297.4471 238.45913,299.41085 C 238.45781,304.6573 238.45774,309.90376 238.45781,315.15036 C 236.27341,315.15195 234.08989,315.15084 231.90706,315.15105 C 231.87557,310.47427 231.97303,305.79575 231.84982,301.12042 C 231.85425,299.92487 231.53328,298.53674 230.39012,297.92886 C 229.18322,297.51196 227.66164,297.73125 226.7978,298.73174 C 225.87919,299.87642 225.76996,301.40893 225.75661,302.81739 C 225.74961,306.92859 225.75674,311.03979 225.75432,315.15105 C 223.63462,315.15105 221.51589,315.15167 219.39779,315.15064 C 219.39758,305.12495 219.39792,295.0994 219.39772,285.07378 z M 255.18785,285.10188 C 255.18757,295.08216 255.18619,305.05891 255.18785,315.03913 C 256.36804,315.03926 257.46523,315.03898 258.64881,315.03913 C 259.0356,313.90186 259.48559,312.82315 260.03312,311.75128 C 261.02953,313.13802 262.102,314.54511 263.84024,315.03913 C 266.59716,315.7862 269.92624,315.59592 272.14652,313.65474 C 274.60878,311.51103 275.41912,308.15072 275.60739,305.00243 C 275.74452,301.66531 275.2505,298.04072 273.1848,295.31169 C 271.27014,292.7454 267.6153,291.81876 264.7054,293.06214 C 263.45856,293.5509 262.56723,294.63176 261.76366,295.65785 C 261.76269,292.12083 261.76394,288.63884 261.76366,285.10188 C 259.57918,285.10015 257.37053,285.10202 255.18785,285.10188 z M 264.53242,297.04217 C 265.47768,296.90429 266.5287,296.89355 267.30112,297.56131 C 268.48579,298.59995 268.82518,300.38177 268.85854,301.88757 C 268.99373,304.50869 269.20235,307.3266 267.82025,309.67472 C 266.81333,311.41094 264.01708,311.38512 262.80194,309.8477 C 261.76006,308.53592 261.735,306.77492 261.76366,305.17541 C 261.81876,303.17997 261.40247,301.20638 262.10969,299.29186 C 262.46873,298.28396 263.45565,297.2744 264.53242,297.04217 z M 60.90699,286.33572 C 62.809747,286.20489 64.706914,286.00097 66.614376,285.92953 C 66.579767,288.26408 66.605935,290.59891 66.598255,292.93354 C 68.171039,292.93498 69.743975,292.93354 71.317472,292.9352 C 71.317671,294.64359 71.317671,296.35191 71.317472,298.06038 C 69.743908,298.06204 68.170839,298.06025 66.59797,298.06218 C 66.613825,301.23263 66.568351,304.40411 66.617076,307.57399 C 66.660202,308.58036 66.873257,309.91996 68.053437,310.1697 C 69.248027,310.33666 70.464204,310.24329 71.663974,310.1661 C 71.657263,311.77289 71.653661,313.37974 71.668062,314.98672 C 68.708877,315.54567 65.471021,315.92617 62.673324,314.54137 C 60.65884,313.53645 60.067781,311.10568 59.983125,309.03769 C 59.975996,305.38722 59.984095,301.73654 59.982013,298.08613 C 58.937505,298.12489 57.892636,298.12316 56.848327,298.11825 C 56.847985,296.39047 56.847643,294.66283 56.84847,292.9352 C 57.996816,292.93401 59.145428,292.93381 60.294334,292.93498 C 60.58159,290.74317 60.640571,288.53016 60.90699,286.33572 z M 205.4885,286.3355 C 207.3907,286.20571 209.28773,286.00145 211.19575,285.92946 C 211.161,288.26402 211.18696,290.59891 211.17976,292.93374 C 212.75194,292.93485 214.32487,292.93354 215.89891,292.9352 C 215.89856,294.64359 215.89856,296.35191 215.89891,298.06038 C 214.3248,298.06184 212.75186,298.06052 211.1797,298.06191 C 211.19368,301.223 211.15193,304.385 211.19671,307.54553 C 211.2415,308.5497 211.43351,309.89393 212.60754,310.16243 C 213.80883,310.34275 215.03588,310.24204 216.24548,310.16534 C 216.23815,311.77226 216.23441,313.37932 216.24978,314.98638 C 213.28969,315.54678 210.05114,315.92568 207.25331,314.5406 C 205.236,313.53229 204.64604,311.09669 204.56443,309.02537 C 204.55751,305.37891 204.56519,301.73239 204.56352,298.08593 C 203.51804,298.12517 202.47298,298.1231 201.42984,298.11825 C 201.42887,296.39054 201.42852,294.66291 201.43005,292.9352 C 202.57736,292.93401 203.72625,292.93381 204.87612,292.93498 C 205.16137,290.74296 205.22311,288.53016 205.4885,286.3355 z M 32.546767,292.89678 C 34.998293,292.25201 37.962392,292.40194 39.951192,294.13358 C 41.455879,295.55694 41.715245,297.73872 41.857076,299.69651 C 41.8795,304.84766 41.858806,309.99956 41.865793,315.15105 C 39.68215,315.15098 37.498563,315.15195 35.31511,315.15036 C 35.309227,310.91934 35.324597,306.68833 35.308609,302.45745 C 35.234542,301.22494 35.357125,299.87891 34.689575,298.78026 C 33.891971,297.5492 32.094763,297.46378 30.876989,298.0536 C 29.477661,298.86824 29.263151,300.68026 29.223352,302.14541 C 29.21186,306.48046 29.223485,310.81579 29.219122,315.15112 C 27.054442,315.15112 24.889896,315.15126 22.725273,315.15105 C 22.725064,307.74552 22.724931,300.3399 22.725415,292.93437 C 24.730622,292.93443 26.735895,292.93401 28.741244,292.93478 C 28.736539,294.19934 28.722965,295.46466 28.780207,296.72854 C 29.619217,295.13429 30.658402,293.3539 32.546767,292.89678 z M 92.099105,296.35939 C 93.789501,292.74048 98.722328,291.46408 102.05772,293.53719 C 103.15754,294.18737 103.90068,295.2541 104.57556,296.30859 C 105.43762,294.8419 106.67041,293.4841 108.34045,292.96448 C 110.89256,292.1659 113.9762,292.47365 115.99879,294.3393 C 117.38974,295.61771 117.66835,297.60782 117.74802,299.39839 C 117.74338,304.64921 117.74629,309.90016 117.74546,315.15105 C 115.56146,315.15084 113.37802,315.15202 111.19477,315.15036 C 111.18868,311.1538 111.20426,307.15715 111.18813,303.16072 C 111.13406,301.657 111.18529,300.08462 110.57332,298.67657 C 110.1515,297.80877 109.02004,297.79299 108.18914,297.7707 C 107.10732,297.71816 106.07284,298.37747 105.64694,299.36745 C 105.13776,300.56729 105.12585,301.89602 105.09968,303.17768 C 105.09643,307.16878 105.10038,311.15988 105.09879,315.15112 C 102.93383,315.15112 100.76927,315.15126 98.605005,315.15112 C 98.593166,310.82133 98.62736,306.49113 98.588249,302.16168 C 98.51986,300.85884 98.640234,299.3298 97.658431,298.31497 C 95.888916,297.07075 92.878856,297.92174 92.654381,300.27214 C 92.228473,305.21175 92.554977,310.19428 92.452189,315.15105 C 90.287366,315.15126 88.122748,315.15112 85.958473,315.15112 C 85.957919,307.74558 85.958057,300.34011 85.958334,292.93457 C 88.008603,292.93422 90.059081,292.9343 92.109898,292.93443 C 92.111493,294.07606 92.115093,295.21769 92.099105,296.35939 z M 132.67012,292.54301 C 131.28948,292.51739 130.00325,292.82756 128.68996,293.23512 C 125.41881,294.26835 122.81582,297.05997 121.9411,300.33015 C 121.34055,302.64822 121.208,305.08688 121.76812,307.42503 C 122.51118,310.85227 125.28798,313.88123 128.68996,314.86615 C 132.1361,315.87155 136.09958,315.84636 139.07282,313.65474 C 140.98056,312.27673 142.10911,310.11211 142.87993,307.94417 C 140.88158,307.86554 138.82432,307.44365 136.82327,307.42503 C 136.55151,308.26991 136.28308,309.2225 135.61194,309.8477 C 133.88076,311.43711 130.83582,311.18639 129.55526,309.15557 C 128.77876,308.02405 128.45675,306.51978 128.68996,305.17541 C 133.48795,305.18288 138.25458,305.17562 143.05298,305.17541 C 142.83536,303.26821 142.85377,301.29215 142.18768,299.46484 C 141.29302,296.78059 139.49693,294.47352 136.82327,293.40817 C 135.53503,292.91014 134.0507,292.56854 132.67012,292.54301 z M 132.67012,296.69614 C 133.59233,296.6787 134.42137,297.07305 135.09279,297.73444 C 136.01755,298.73638 136.32336,300.0568 136.47711,301.36842 C 133.85003,301.39619 131.31647,301.35576 128.68996,301.36842 C 128.81151,300.02613 129.08195,298.70841 130.0744,297.73444 C 130.76764,297.14461 131.74785,296.71352 132.67012,296.69614 z M 305.19973,295.09524 C 306.96606,293.38713 309.47657,292.72304 311.87189,292.59138 C 314.08648,292.51981 316.45648,292.73121 318.36359,293.96558 C 319.94304,294.97924 320.8453,296.70604 321.56512,298.38142 C 319.94906,298.79923 318.3366,299.227 316.71293,299.60515 C 316.21344,298.11506 314.90943,296.84897 313.28956,296.75463 C 311.93584,296.676 310.13601,296.55944 309.31313,297.88014 C 308.82832,298.81258 309.44105,299.95775 310.43649,300.19302 C 313.56824,301.1751 317.15137,300.70891 319.99336,302.59146 C 323.16636,304.75289 323.22562,309.74594 320.82309,312.50273 C 318.942,314.61751 316.01977,315.39206 313.28395,315.49818 C 310.46668,315.57363 307.42706,315.17639 305.15321,313.3708 C 303.72376,312.29805 302.81236,310.66074 302.39275,308.94563 C 304.25834,308.66793 306.12518,308.38371 308.00323,308.18699 C 308.8702,311.32788 312.99836,311.6849 315.5432,310.54992 C 316.81953,310.13607 317.12132,308.07514 315.72448,307.61206 C 312.51805,306.6072 308.91914,306.76931 305.9374,305.05068 C 302.63377,302.94593 302.34901,297.68688 305.19973,295.09524 z M 346.5923,293.03605 C 348.862,292.25976 351.51772,292.36684 353.63293,293.54238 C 355.7432,294.79435 356.18489,297.43555 356.31204,299.68273 C 356.33703,304.83845 356.31371,309.99492 356.32208,315.15105 C 354.13731,315.15098 351.9538,315.15195 349.7714,315.15036 C 349.76495,310.92086 349.78011,306.69145 349.76495,302.46209 C 349.68875,301.23048 349.81231,299.88721 349.1505,298.78739 C 348.40196,297.60402 346.74065,297.50102 345.54184,297.9497 C 344.09253,298.59503 343.75418,300.35977 343.69265,301.78222 C 343.65029,306.23792 343.68774,310.6948 343.67541,315.15105 C 341.50968,315.1512 339.34507,315.1512 337.18156,315.15105 C 337.18107,307.74552 337.18087,300.3399 337.18169,292.93437 C 339.18573,292.93443 341.19086,292.93401 343.19739,292.93471 C 343.19115,294.199 343.17773,295.46391 343.23518,296.7275 C 344.03217,295.26788 344.91596,293.61652 346.5923,293.03605 z M 371.64884,292.54301 C 370.26148,292.51705 368.81439,292.82347 367.4957,293.23512 C 364.23133,294.27369 361.79184,297.06425 360.91989,300.33015 C 360.3183,302.65002 360.18513,305.08542 360.74685,307.42503 C 361.4917,310.84542 364.10057,313.87908 367.4957,314.86615 C 371.01292,315.89924 375.24567,315.81258 378.22472,313.48169 C 380.03098,312.10596 381.107,310.03583 381.85872,307.94417 C 379.85961,307.86485 377.80207,307.44454 375.80198,307.42503 C 375.51618,308.34246 375.19217,309.39154 374.41767,310.02074 C 372.89278,311.21678 370.52292,311.11226 369.05312,309.8477 C 367.79431,308.67831 367.3738,306.84469 367.66874,305.17541 C 372.46646,305.18288 377.23281,305.17569 382.03169,305.17541 C 381.81159,303.27452 381.82798,301.46001 381.16646,299.63789 C 380.27644,296.95336 378.29781,294.4801 375.629,293.40817 C 374.3353,292.90453 373.03627,292.56881 371.64884,292.54301 z M 371.64884,296.69614 C 372.57319,296.67884 373.39967,297.07007 374.07158,297.73444 C 374.99116,298.73714 375.30146,300.05853 375.45596,301.36842 C 372.82812,301.39625 370.12159,301.35556 367.4957,301.36842 C 367.61593,300.02772 368.0633,298.70896 369.05312,297.73444 C 369.74663,297.1422 370.72463,296.71331 371.64884,296.69614 z M 387.94183,294.49083 C 391.06312,292.31492 395.26597,292.12513 398.82978,293.19504 C 401.23237,293.93265 402.7183,296.15416 403.59711,298.38121 C 401.98077,298.79986 400.36803,299.22672 398.74457,299.60522 C 398.2691,298.23239 397.14713,297.02217 395.66404,296.80004 C 394.51169,296.66181 393.28125,296.61232 392.1988,297.0848 C 391.40126,297.43333 390.96456,298.39014 391.2849,299.21184 C 391.72043,300.14401 392.84032,300.33506 393.74551,300.53358 C 396.60203,301.06476 399.75793,300.98191 402.22573,302.73433 C 405.59504,305.29557 405.1602,311.0953 401.79298,313.47685 C 399.66221,315.0983 396.88701,315.53737 394.2744,315.50483 C 391.77795,315.45271 389.14707,314.9542 387.15751,313.34914 C 385.74294,312.27673 384.84151,310.64911 384.42467,308.94577 C 386.28998,308.66806 388.15668,308.38316 390.03522,308.18686 C 390.35965,309.39396 391.28851,310.4004 392.49091,310.77038 C 394.19314,311.2995 396.14207,311.27693 397.75287,310.45557 C 398.78651,309.99637 399.09067,308.31622 398.00572,307.74455 C 396.42691,306.98272 394.60472,307.04211 392.92491,306.63455 C 390.8828,306.16122 388.5659,305.87479 387.05416,304.27141 C 384.32879,301.65417 384.81431,296.59654 387.94183,294.49083 z M 409.82703,294.48369 C 412.94757,292.31423 417.14521,292.12637 420.70536,293.19525 C 423.1074,293.93299 424.59373,296.15436 425.47234,298.38128 C 423.85593,298.79971 422.24327,299.22665 420.62007,299.60522 C 420.14406,298.22838 419.01551,297.01649 417.52813,296.79803 C 416.30475,296.66285 414.96412,296.58892 413.85495,297.20483 C 412.93212,297.73325 412.75748,299.17757 413.63961,299.83004 C 414.93734,300.6417 416.53131,300.62473 417.99715,300.88133 C 420.2465,301.17615 422.6889,301.49843 424.47212,303.03917 C 426.61991,304.9411 426.84584,308.25981 425.81241,310.79655 C 424.78436,313.22067 422.28853,314.66921 419.7999,315.17888 C 416.86937,315.73831 413.73416,315.64784 410.95211,314.50599 C 408.61576,313.53604 406.83587,311.42049 406.30011,308.94563 C 408.16528,308.6673 410.03206,308.38482 411.91045,308.18671 C 412.2425,309.45605 413.2587,310.47267 414.5207,310.82604 C 416.26551,311.29036 418.28068,311.28399 419.85666,310.30648 C 420.84968,309.69292 420.80545,307.97455 419.61959,307.60638 C 417.89707,306.97801 416.02331,306.95815 414.25123,306.52477 C 412.37816,306.07747 410.27702,305.74481 408.9123,304.2541 C 406.20196,301.62883 406.69832,296.58123 409.82703,294.48369 z M 74.679365,292.81192 C 76.863365,292.81102 79.047504,292.81206 81.231991,292.81136 C 81.227007,300.25767 81.231642,307.70404 81.229565,315.15036 C 79.045771,315.15195 76.86233,315.15078 74.679023,315.15112 C 74.678813,307.70467 74.678196,300.2583 74.679365,292.81192 z M 157.42521,292.93464 C 159.73124,292.93471 162.03763,292.93312 164.34456,292.9354 C 165.62137,297.40225 166.77545,301.90453 168.09319,306.35947 C 169.23882,301.89152 170.36087,297.41671 171.44851,292.93422 C 173.4616,292.94045 175.47547,292.9192 177.48974,292.94849 C 178.55086,297.43728 179.52194,301.95866 180.76892,306.39796 C 181.98517,301.91429 183.30158,297.45831 184.50821,292.97216 C 186.20982,292.89733 187.91406,292.94628 189.61823,292.93665 C 187.37685,300.33769 185.11601,307.73305 182.90488,315.14288 C 180.93428,315.13811 178.96244,315.19937 176.99462,315.10453 C 175.88531,310.40352 174.67418,305.72667 173.55374,301.02829 C 172.28633,305.70846 171.20908,310.44091 170.05104,315.14973 C 168.19542,315.15078 166.34056,315.15583 164.48624,315.14614 C 162.1411,307.73949 159.76578,300.34254 157.42521,292.93464 z M 192.2588,292.81177 C 194.44238,292.81122 196.62645,292.81206 198.81128,292.81136 C 198.80616,300.25767 198.8108,307.70404 198.80893,315.15036 C 196.62465,315.15202 194.44121,315.15078 192.25832,315.15112 C 192.25804,307.7046 192.25714,300.2583 192.2588,292.81177 z M 280.10089,292.93457 C 282.26455,292.93416 284.42909,292.9343 286.59475,292.93443 C 286.60084,297.73913 286.58284,302.54412 286.60222,307.34861 C 286.58257,308.37243 286.8157,309.64308 287.86292,310.10435 C 289.83185,310.85268 292.63688,309.68115 292.64069,307.33546 C 292.87624,302.54183 292.68519,297.73394 292.74749,292.93457 C 294.91114,292.93422 297.07576,292.93422 299.24135,292.93457 C 299.24128,300.34011 299.24148,307.74558 299.24128,315.1512 C 297.26238,315.15084 295.28465,315.15181 293.30803,315.15057 C 293.30893,313.88081 293.30733,312.61134 293.3018,311.34193 C 292.31868,313.27902 290.59112,314.93627 288.39265,315.32382 C 285.86297,315.87176 282.65715,315.4455 281.17704,313.07123 C 280.25013,311.42492 280.13059,309.46139 280.09467,307.61261 C 280.10802,302.71986 280.09653,297.82725 280.10089,292.93457 z M 325.90266,292.81177 C 328.08576,292.81122 330.26982,292.81206 332.4552,292.81136 C 332.44988,300.25767 332.45459,307.70398 332.45279,315.15036 C 330.26817,315.15195 328.08472,315.15098 325.90225,315.15112 C 325.90183,307.7046 325.901,300.2583 325.90266,292.81177 z M 430.63019,308.31629 C 432.97561,308.31435 435.32227,308.31553 437.67046,308.31553 C 437.66894,310.61292 437.67011,312.91036 437.66977,315.20795 C 435.32221,315.21059 432.97602,315.20338 430.63122,315.21245 C 430.62805,312.91354 430.62963,310.61499 430.63019,308.31629 z"
   id="text_claim"
   style="fill:#231e1e;fill-rule:nonzero;stroke:none" /></svg>