<svg version="1.1" id="Layer_1" xmlns="http://www.w3.org/2000/svg" xmlns:xlink="http://www.w3.org/1999/xlink" x="0px" y="0px"
	 width="100%" viewBox="0 0 1792 576" enable-background="new 0 0 1792 576" xml:space="preserve">
<path fill="#FCFDFD" opacity="1.000000" stroke="none" 
	d="
M1261.000000,577.000000 
	C840.666687,577.000000 420.833344,577.000000 1.000000,577.000000 
	C1.000000,385.000000 1.000000,193.000000 1.000000,1.000000 
	C598.333313,1.000000 1195.666626,1.000000 1793.000000,1.000000 
	C1793.000000,193.000000 1793.000000,385.000000 1793.000000,577.000000 
	C1615.833374,577.000000 1438.666626,577.000000 1261.000000,577.000000 
M460.705933,409.937256 
	C461.161041,409.338470 461.616180,408.739716 462.685059,407.832916 
	C463.133606,406.805634 463.582153,405.778320 464.591766,404.455872 
	C465.406128,402.012939 466.873810,399.582245 466.920013,397.124878 
	C467.104584,387.304779 467.106476,377.462982 466.601562,367.658813 
	C466.442474,364.569244 464.486938,361.572174 463.087158,357.936432 
	C461.378265,356.275696 459.669373,354.614990 457.863770,352.416901 
	C457.222870,352.147095 456.581970,351.877289 455.548798,351.050629 
	C454.747314,350.647430 453.945862,350.244232 452.986328,349.287201 
	C452.318390,349.012207 451.650452,348.737213 450.600800,348.046631 
	C450.421570,347.989532 450.242371,347.932465 449.897186,347.351440 
	C449.257996,347.060516 448.618774,346.769623 447.527222,346.074738 
	C447.327728,346.042053 447.128204,346.009338 446.711212,345.407867 
	C445.469910,344.741577 444.228607,344.075287 442.527771,343.064575 
	C442.338654,343.034851 442.149567,343.005127 441.792053,342.452118 
	C441.179779,342.149139 440.567505,341.846161 439.407990,341.088226 
	C435.599213,338.718719 431.790466,336.349213 427.880432,333.421661 
	C427.235992,333.120087 426.591583,332.818512 425.476501,332.128876 
	C425.275208,332.100006 425.073944,332.071136 424.645844,331.464752 
	C423.756622,331.016937 422.867371,330.569122 421.597443,329.633667 
	C420.524658,329.015045 419.451904,328.396454 417.996155,327.229858 
	C415.210266,325.424835 412.427032,323.615723 409.638000,321.815491 
	C395.530701,312.709625 381.464050,303.539948 367.299469,294.524048 
	C357.108704,288.037537 343.028137,293.663300 341.628571,305.201874 
	C340.757294,312.385071 341.603607,319.776611 341.462219,327.968933 
	C341.532227,331.941986 341.602234,335.915070 341.334381,340.520691 
	C342.862244,344.063965 344.390137,347.607208 346.114746,351.761627 
	C347.610687,352.917511 349.106598,354.073425 350.936310,355.812927 
	C367.583099,366.240021 384.229858,376.667114 401.227722,387.560455 
	C401.770599,387.758911 402.313507,387.957397 403.083221,388.766815 
	C407.384460,391.340607 411.685669,393.914368 416.440521,396.909485 
	C416.639862,396.962952 416.839203,397.016418 417.289703,397.654999 
	C422.199371,400.587677 427.109070,403.520386 432.367737,406.925537 
	C432.551361,406.993500 432.734955,407.061493 433.105133,407.638306 
	C433.743500,407.912170 434.381866,408.186005 435.382568,408.930695 
	C435.570862,408.992065 435.759155,409.053467 436.221466,409.703033 
	C445.977478,416.124878 452.853424,416.252472 460.114166,410.113556 
	C460.114166,410.113556 460.144226,410.078461 460.705933,409.937256 
M552.692993,219.574142 
	C552.514648,219.326157 552.309387,219.103012 552.126038,218.392288 
	C551.874146,218.191803 551.622192,217.991318 551.309631,217.083221 
	C549.062866,215.310364 546.816040,213.537506 544.087097,211.211182 
	C539.803955,209.501572 535.564270,208.709488 530.819092,211.835876 
	C527.019653,214.145966 523.143250,216.339615 519.436035,218.789322 
	C510.537354,224.669479 501.718140,230.669861 492.133209,236.660980 
	C486.096832,240.545670 480.060486,244.430344 473.342987,248.293686 
	C471.577423,249.240494 469.811829,250.187302 467.143311,251.055405 
	C464.724152,251.122787 462.305023,251.190170 459.423615,250.749557 
	C451.332733,246.152939 443.241882,241.556305 434.901978,236.501801 
	C433.794952,235.941956 432.687958,235.382095 431.231354,234.204681 
	C426.422729,231.326416 421.614105,228.448135 416.369141,225.018585 
	C412.774933,222.933289 409.180695,220.847992 405.213074,218.165527 
	C402.247772,216.397842 399.282471,214.630157 396.017639,212.342300 
	C395.338257,212.011002 394.658875,211.679703 393.639130,210.960846 
	C393.317108,210.863464 392.995087,210.766083 392.338898,210.095520 
	C391.219666,209.468872 390.100433,208.842239 388.545044,207.745407 
	C387.230560,207.084930 385.916046,206.424454 384.213531,205.174911 
	C377.920837,201.144989 371.846466,196.708893 365.283691,193.181442 
	C355.708679,188.034927 342.526581,194.611282 341.415497,205.179276 
	C340.726562,211.732056 341.474457,218.435898 341.303802,225.939758 
	C341.279510,228.738495 340.893433,231.592392 341.310059,234.323883 
	C342.060974,239.247528 343.292480,244.097900 344.305695,249.563873 
	C344.858917,250.056290 345.412170,250.548691 346.229950,251.660080 
	C349.399445,253.801437 352.568939,255.942795 356.030914,258.716400 
	C362.285645,262.563110 368.540405,266.409790 374.920105,270.139252 
	C374.920105,270.139252 374.759460,270.198914 374.990295,270.751892 
	C375.653564,271.143524 376.316833,271.535126 377.332367,272.387115 
	C378.025879,272.632446 378.719391,272.877777 379.763855,273.695984 
	C380.134583,273.938049 380.505341,274.180084 381.128906,274.883759 
	C381.756256,275.064575 382.383575,275.245392 383.405579,276.039490 
	C392.948242,281.980377 402.490875,287.921295 412.287262,294.527985 
	C415.523651,296.333771 418.760010,298.139557 422.569550,300.261871 
	C423.940643,301.265411 425.311768,302.268982 426.993988,303.847198 
	C435.541504,309.419250 443.946960,315.229218 452.700348,320.456512 
	C456.689667,322.838837 461.240845,325.030853 466.876251,322.345093 
	C467.309570,322.203766 467.742889,322.062439 468.567047,322.195099 
	C469.682678,321.510223 470.798340,320.825348 472.617737,319.958313 
	C473.409149,319.423309 474.200592,318.888306 475.596924,318.431122 
	C477.032043,317.323212 478.467163,316.215271 480.539154,314.861176 
	C480.691254,314.691864 480.843353,314.522552 481.500610,314.455536 
	C481.986053,314.021515 482.471497,313.587463 483.570343,312.894806 
	C483.711365,312.723480 483.852356,312.552155 484.511047,312.452057 
	C485.007629,312.019623 485.504211,311.587189 486.686005,310.956055 
	C487.450317,310.416077 488.214630,309.876068 489.493439,309.406097 
	C489.959076,308.956879 490.424713,308.507660 491.491638,307.804382 
	C491.650757,307.655914 491.809845,307.507477 492.502991,307.471222 
	C493.001831,307.030090 493.500671,306.588989 494.564575,305.939270 
	C494.712250,305.803223 494.859894,305.667175 495.632660,305.560089 
	C497.107574,304.426697 498.582520,303.293274 500.594452,301.940460 
	C500.725250,301.798096 500.856079,301.655701 501.540283,301.599304 
	C502.055481,301.130798 502.570679,300.662292 503.609863,299.992523 
	C503.742401,299.860504 503.874969,299.728455 504.624146,299.661346 
	C505.733185,298.821899 506.842224,297.982452 508.567352,296.837494 
	C508.704163,296.653595 508.840942,296.469666 509.623474,296.339752 
	C514.389282,293.253113 519.155029,290.166473 524.529297,286.858337 
	C524.674255,286.698425 524.819275,286.538513 525.485779,286.477448 
	C525.989136,286.034698 526.492493,285.591949 527.575562,284.952759 
	C527.714233,284.803040 527.852905,284.653320 528.627808,284.524933 
	C530.110229,283.417450 531.592651,282.309998 533.751404,281.058624 
	C534.488342,280.520447 535.225281,279.982300 536.511047,279.550720 
	C537.011475,279.079437 537.511841,278.608154 538.566589,277.920868 
	C538.706543,277.780365 538.846558,277.639862 539.522217,277.562256 
	C540.018127,277.089722 540.513977,276.617188 541.583374,276.003967 
	C541.731445,275.874268 541.879517,275.744568 542.666687,275.641785 
	C544.135864,274.493866 545.604980,273.345947 547.721619,271.974670 
	C549.542725,269.721802 551.363831,267.468964 553.787109,264.854279 
	C554.381714,262.797943 555.478027,260.743866 555.487244,258.684906 
	C555.537231,247.539871 555.409485,236.391098 555.097046,225.250504 
	C555.048157,223.508530 553.737976,221.801941 552.975891,219.966705 
	C552.975891,219.966705 552.862183,219.996658 552.692993,219.574142 
M524.960449,116.868568 
	C524.960449,116.868568 524.795349,116.743309 524.088623,116.785049 
	C505.547974,128.427811 487.025696,140.099930 468.460144,151.702835 
	C456.364807,159.262054 444.067902,166.508301 432.127930,174.303101 
	C424.850098,179.054321 422.399170,188.053558 425.553223,195.281982 
	C425.827698,196.181702 426.102173,197.081421 426.322906,198.594254 
	C427.222198,199.621109 428.121521,200.647949 429.364288,202.276581 
	C430.441925,203.069519 431.519592,203.862457 432.921295,205.203247 
	C436.227631,207.257828 439.533936,209.312424 442.988770,211.927734 
	C443.619293,212.300949 444.249817,212.674164 445.128296,213.464417 
	C445.371887,213.716965 445.667511,213.819580 446.040588,213.996490 
	C446.040588,213.996490 446.265198,213.974854 446.480682,214.590118 
	C448.041931,215.810577 449.556488,217.097061 451.172546,218.240036 
	C458.100098,223.139832 466.495819,223.424744 473.621552,218.923813 
	C497.345520,203.938797 521.042542,188.911118 544.757996,173.912689 
	C551.912842,169.387787 555.743835,163.178467 555.398193,154.456635 
	C555.049133,145.649902 555.154175,136.825836 554.883423,128.014786 
	C554.831543,126.325714 553.958801,124.661873 553.601501,122.414421 
	C552.900452,121.182220 552.199463,119.950012 551.291260,118.108788 
	C550.289673,117.027443 549.288086,115.946098 548.044861,114.311150 
	C547.354431,114.031395 546.663940,113.751640 545.614014,113.061050 
	C545.272522,112.961205 544.931091,112.861351 544.063782,112.138336 
	C538.146179,110.393875 532.428040,109.859131 527.268005,114.846016 
	C527.268005,114.846016 527.003906,115.079689 526.393494,115.101967 
	C525.851929,115.664658 525.310303,116.227341 524.960449,116.868568 
M949.100647,261.440369 
	C959.109680,263.897858 964.330933,270.361542 964.478821,281.293213 
	C964.688171,296.777832 964.572510,312.266846 964.595093,327.753998 
	C964.597717,329.536255 964.595520,331.318512 964.595520,333.294983 
	C973.751648,333.294983 982.268066,333.294983 990.909180,333.294983 
	C990.909180,312.455841 991.483398,291.980682 990.714294,271.556152 
	C990.169861,257.099579 983.446960,245.229492 969.096741,240.310104 
	C953.984009,235.129288 939.212646,235.813614 926.877441,247.969284 
	C926.137573,248.698425 925.136230,249.162216 923.321411,250.373703 
	C923.321411,233.909561 923.321411,218.395187 923.321411,202.284470 
	C915.526428,202.284470 908.411316,202.488052 901.315613,202.205383 
	C897.288940,202.044952 896.280518,203.491638 896.313904,207.368134 
	C896.487793,227.516647 896.368164,247.667557 896.387939,267.817596 
	C896.407837,288.133881 896.423584,308.450531 896.609375,328.765503 
	C896.623779,330.343109 897.907349,333.239777 898.697571,333.273651 
	C906.597107,333.612762 914.516907,333.479614 923.028809,333.479614 
	C923.028809,329.601868 923.034607,326.461609 923.027771,323.321381 
	C922.999573,310.333862 922.799194,297.343994 922.979980,284.359436 
	C923.201294,268.459076 932.348511,260.237366 949.100647,261.440369 
M764.985962,313.603851 
	C760.574463,310.675385 756.162964,307.746948 751.557129,304.689484 
	C740.291382,314.690094 727.549622,316.947906 713.928894,310.010071 
	C708.540161,307.265320 705.253052,302.247314 704.377441,295.132568 
	C706.898071,295.132568 708.688232,295.140289 710.478271,295.131378 
	C729.810120,295.035095 749.144409,294.735352 768.472168,294.971039 
	C773.682068,295.034546 774.853088,293.178864 775.059448,288.436401 
	C776.401367,257.595337 754.982788,235.925568 723.199402,237.400269 
	C687.092407,239.075562 668.807983,271.254333 679.495117,303.526550 
	C686.613342,325.021576 703.458984,334.166473 725.085083,335.211273 
	C740.846069,335.972748 755.138733,332.096893 766.027100,319.556519 
	C768.024902,317.255676 768.320190,315.658112 764.985962,313.603851 
M1227.113525,237.867584 
	C1210.972168,237.470123 1195.949707,240.864288 1182.461670,250.354095 
	C1186.030273,256.513397 1189.243164,262.058899 1192.583252,267.824066 
	C1194.401001,266.808472 1195.841309,266.021454 1197.264771,265.205536 
	C1205.782471,260.323730 1214.977539,258.570404 1224.687988,259.386200 
	C1232.931885,260.078796 1237.865234,264.475586 1239.340088,271.928558 
	C1240.123413,275.887299 1239.242798,277.878540 1234.728638,277.833801 
	C1227.404663,277.761169 1220.040527,277.719849 1212.761719,278.398224 
	C1206.689209,278.964172 1200.463989,279.872040 1194.751953,281.889648 
	C1184.761597,285.418457 1179.216797,293.196808 1178.253418,303.688721 
	C1177.232300,314.808838 1181.038818,324.127594 1190.836426,330.108185 
	C1203.396606,337.775085 1225.642212,338.084412 1237.320801,325.772705 
	C1237.903809,325.157990 1238.864624,324.901581 1240.191406,324.186127 
	C1240.433228,327.527893 1240.631470,330.266052 1240.880127,333.702820 
	C1248.554565,333.702820 1255.999146,333.818512 1263.430054,333.553253 
	C1264.337036,333.520905 1265.931763,331.439362 1265.925903,330.314026 
	C1265.819336,309.500519 1265.897095,288.673431 1265.097656,267.881439 
	C1264.696289,257.444977 1259.175415,248.787292 1249.810181,244.209213 
	C1243.118530,240.938187 1235.319336,239.933182 1227.113525,237.867584 
M1391.400024,261.105133 
	C1403.367310,262.582489 1409.090088,268.619690 1409.878418,280.673309 
	C1410.030396,282.998230 1410.038086,285.334839 1410.049683,287.666351 
	C1410.119019,301.493866 1410.095459,315.322723 1410.333862,329.147217 
	C1410.359863,330.651855 1411.809570,333.386719 1412.692017,333.425262 
	C1420.457642,333.764618 1428.244263,333.621887 1436.218384,333.621887 
	C1436.218384,312.547516 1436.896484,292.076202 1435.989380,271.675415 
	C1435.342529,257.126770 1428.506226,245.060242 1413.879517,240.169540 
	C1398.478638,235.020004 1383.608765,236.073685 1371.297485,248.494629 
	C1370.458740,249.340820 1369.421753,249.990601 1367.692871,251.346771 
	C1367.443115,248.070267 1367.163940,245.805954 1367.122925,243.537338 
	C1367.064087,240.281891 1365.832153,238.808578 1362.285156,238.974564 
	C1356.968262,239.223373 1351.624023,239.065765 1346.298462,238.877853 
	C1343.108765,238.765320 1342.008301,239.832520 1342.028687,243.192276 
	C1342.201050,271.679413 1342.182129,300.167664 1342.240479,328.655579 
	C1342.243530,330.105042 1342.428345,331.554108 1342.550537,333.318542 
	C1351.246826,333.318542 1359.625366,333.318542 1368.536743,333.318542 
	C1368.536743,331.181702 1368.539795,329.391663 1368.536255,327.601624 
	C1368.507202,312.942200 1368.095825,298.270813 1368.554688,283.626709 
	C1369.008057,269.160583 1376.958862,261.430969 1391.400024,261.105133 
M828.710144,311.380859 
	C817.898560,307.729706 811.859131,297.630676 812.606628,284.452820 
	C813.227295,273.511108 819.390076,264.790436 828.851440,261.465729 
	C838.553040,258.056641 848.158875,260.952667 855.679871,269.393463 
	C856.384705,270.184448 858.078796,271.023651 858.825073,270.703125 
	C865.798584,267.708008 872.665283,264.464264 880.295776,260.955475 
	C877.939331,257.795319 876.124756,254.579788 873.592896,252.094986 
	C858.589111,237.369781 840.327332,234.259277 820.868164,239.521240 
	C801.450073,244.772095 789.838745,258.309357 786.318604,278.144012 
	C782.882263,297.506104 791.517822,317.906067 807.054443,327.231323 
	C823.967651,337.382812 841.757019,337.933136 859.720764,330.243530 
	C867.381165,326.964386 873.234375,321.180847 877.595154,314.114258 
	C878.322388,312.935638 877.996216,309.609589 877.213501,309.232147 
	C870.667908,306.075562 863.901672,303.376617 856.973816,300.443085 
	C850.518616,311.091278 841.157410,314.306824 828.710144,311.380859 
M617.311829,260.499634 
	C617.315918,262.998535 617.324036,265.497467 617.323303,267.996368 
	C617.317444,288.319641 617.260498,308.643250 617.401306,328.965515 
	C617.411987,330.511383 618.768066,333.353638 619.587158,333.386414 
	C627.856262,333.717651 636.143799,333.588287 645.005920,333.588287 
	C645.005920,331.011322 645.005981,329.056854 645.005920,327.102356 
	C645.005371,297.450378 645.091736,267.797882 644.910034,238.147003 
	C644.882935,233.723755 646.150879,232.354507 650.564514,232.577560 
	C657.542297,232.930206 664.552490,232.637283 671.549011,232.624832 
	C675.798157,232.617279 680.047302,232.623459 684.648010,232.623459 
	C684.648010,225.920181 684.411011,220.097458 684.728516,214.305145 
	C684.952942,210.211090 683.410889,209.305435 679.549988,209.342148 
	C659.061829,209.536880 638.571045,209.458603 618.081177,209.466965 
	C606.253723,209.471802 594.424622,209.369186 582.601013,209.580383 
	C581.191223,209.605576 578.658752,211.241074 578.604126,212.237503 
	C578.243103,218.820450 578.417542,225.432770 578.417542,232.414108 
	C580.136414,232.494843 581.588806,232.627914 583.040527,232.620743 
	C592.702209,232.572968 602.370483,232.684937 612.021973,232.337204 
	C616.089539,232.190659 617.660767,233.167755 617.446045,237.515350 
	C617.084900,244.827896 617.321533,252.169983 617.311829,260.499634 
M1120.659302,333.610565 
	C1126.622803,333.610565 1132.586426,333.610565 1139.225220,333.610565 
	C1139.225220,331.374176 1139.225586,329.596863 1139.225342,327.819519 
	C1139.223145,313.334961 1139.100708,298.849060 1139.257446,284.366241 
	C1139.379517,273.068726 1146.354248,264.780609 1157.422729,262.579010 
	C1160.496460,261.967621 1163.728760,262.178802 1166.826782,261.650909 
	C1167.973267,261.455566 1169.828613,260.249908 1169.854614,259.455841 
	C1170.090332,252.235474 1169.992798,245.004211 1169.992798,237.576736 
	C1156.998901,237.337585 1147.592773,242.463837 1139.018311,252.233383 
	C1138.521729,247.003525 1138.171997,243.318741 1137.773560,239.122498 
	C1130.918823,239.122498 1124.275024,239.395126 1117.667603,239.023346 
	C1113.502441,238.788986 1112.708618,240.318222 1112.733398,244.135590 
	C1112.916382,272.271729 1112.883301,300.409210 1112.931152,328.546295 
	C1112.933594,330.004639 1113.055054,331.462769 1113.152344,333.613953 
	C1115.512329,333.613953 1117.613281,333.613953 1120.659302,333.610565 
M1078.500000,209.454056 
	C1053.019043,209.415314 1027.537598,209.439880 1002.057556,209.265671 
	C998.474854,209.241165 996.885742,209.963623 997.160889,213.925964 
	C997.494507,218.730957 997.361450,223.587112 997.126770,228.406357 
	C996.966309,231.699997 998.106628,232.717850 1001.418518,232.640366 
	C1010.906433,232.418289 1020.402405,232.559464 1029.895142,232.520935 
	C1037.065918,232.491821 1037.031738,232.466614 1037.044922,239.419022 
	C1037.101440,269.228699 1037.236938,299.038452 1037.176270,328.847839 
	C1037.168823,332.476746 1037.996460,333.950348 1041.893188,333.707977 
	C1047.201904,333.377777 1052.546631,333.622986 1057.875977,333.630951 
	C1064.606201,333.641022 1064.633057,333.645050 1064.617310,326.889679 
	C1064.548584,297.411957 1064.559448,267.933319 1064.283569,238.457443 
	C1064.239868,233.781250 1065.654785,232.354431 1070.244873,232.589661 
	C1077.221436,232.947220 1084.229614,232.689758 1091.224365,232.692062 
	C1095.656494,232.693527 1100.088745,232.692352 1104.605957,232.692352 
	C1104.605957,224.573242 1104.605957,217.314697 1104.605957,209.454483 
	C1096.051270,209.454483 1087.775635,209.454483 1078.500000,209.454056 
M1290.554443,308.499634 
	C1290.561768,315.485107 1290.442383,322.474945 1290.683228,329.452362 
	C1290.731567,330.852600 1292.103638,333.366089 1292.943481,333.399384 
	C1300.682129,333.706238 1308.437988,333.580292 1315.890991,333.580292 
	C1316.300171,332.608948 1316.537354,332.308594 1316.537354,332.008270 
	C1316.535034,302.077637 1316.554321,272.146698 1316.338623,242.217468 
	C1316.330688,241.119919 1314.063721,239.181107 1312.758545,239.099838 
	C1307.291992,238.759598 1301.775757,239.232971 1296.306763,238.912476 
	C1291.892944,238.653778 1290.239624,239.761902 1290.315552,244.632843 
	C1290.642578,265.584564 1290.516113,286.543365 1290.554443,308.499634 
M1295.771118,198.254471 
	C1288.354126,203.418091 1285.929932,210.930664 1289.374268,218.077881 
	C1292.432739,224.424423 1300.952393,227.924225 1308.131226,225.783157 
	C1315.330322,223.636032 1319.709595,216.734055 1318.655151,209.196915 
	C1317.150146,198.440460 1307.783203,193.662949 1295.771118,198.254471 
z"/>
<path fill="#273370" opacity="1.000000" stroke="none" 
	d="
M948.651489,261.369049 
	C932.348511,260.237366 923.201294,268.459076 922.979980,284.359436 
	C922.799194,297.343994 922.999573,310.333862 923.027771,323.321381 
	C923.034607,326.461609 923.028809,329.601868 923.028809,333.479614 
	C914.516907,333.479614 906.597107,333.612762 898.697571,333.273651 
	C897.907349,333.239777 896.623779,330.343109 896.609375,328.765503 
	C896.423584,308.450531 896.407837,288.133881 896.387939,267.817596 
	C896.368164,247.667557 896.487793,227.516647 896.313904,207.368134 
	C896.280518,203.491638 897.288940,202.044952 901.315613,202.205383 
	C908.411316,202.488052 915.526428,202.284470 923.321411,202.284470 
	C923.321411,218.395187 923.321411,233.909561 923.321411,250.373703 
	C925.136230,249.162216 926.137573,248.698425 926.877441,247.969284 
	C939.212646,235.813614 953.984009,235.129288 969.096741,240.310104 
	C983.446960,245.229492 990.169861,257.099579 990.714294,271.556152 
	C991.483398,291.980682 990.909180,312.455841 990.909180,333.294983 
	C982.268066,333.294983 973.751648,333.294983 964.595520,333.294983 
	C964.595520,331.318512 964.597717,329.536255 964.595093,327.753998 
	C964.572510,312.266846 964.688171,296.777832 964.478821,281.293213 
	C964.330933,270.361542 959.109680,263.897858 948.651489,261.369049 
z"/>
<path fill="#263270" opacity="1.000000" stroke="none" 
	d="
M765.261536,313.826904 
	C768.320190,315.658112 768.024902,317.255676 766.027100,319.556519 
	C755.138733,332.096893 740.846069,335.972748 725.085083,335.211273 
	C703.458984,334.166473 686.613342,325.021576 679.495117,303.526550 
	C668.807983,271.254333 687.092407,239.075562 723.199402,237.400269 
	C754.982788,235.925568 776.401367,257.595337 775.059448,288.436401 
	C774.853088,293.178864 773.682068,295.034546 768.472168,294.971039 
	C749.144409,294.735352 729.810120,295.035095 710.478271,295.131378 
	C708.688232,295.140289 706.898071,295.132568 704.377441,295.132568 
	C705.253052,302.247314 708.540161,307.265320 713.928894,310.010071 
	C727.549622,316.947906 740.291382,314.690094 751.557129,304.689484 
	C756.162964,307.746948 760.574463,310.675385 765.261536,313.826904 
M737.464966,279.011963 
	C739.963684,279.027893 742.477966,278.871948 744.957764,279.096741 
	C749.619141,279.519287 749.864441,277.279785 748.729614,273.643188 
	C744.930725,261.469421 730.680969,254.926620 718.458435,259.363220 
	C710.776672,262.151611 703.229858,270.818878 704.317932,279.008850 
	C714.957764,279.008850 725.717346,279.008850 737.464966,279.011963 
z"/>
<path fill="#253674" opacity="1.000000" stroke="none" 
	d="
M1227.563965,237.892334 
	C1235.319336,239.933182 1243.118530,240.938187 1249.810181,244.209213 
	C1259.175415,248.787292 1264.696289,257.444977 1265.097656,267.881439 
	C1265.897095,288.673431 1265.819336,309.500519 1265.925903,330.314026 
	C1265.931763,331.439362 1264.337036,333.520905 1263.430054,333.553253 
	C1255.999146,333.818512 1248.554565,333.702820 1240.880127,333.702820 
	C1240.631470,330.266052 1240.433228,327.527893 1240.191406,324.186127 
	C1238.864624,324.901581 1237.903809,325.157990 1237.320801,325.772705 
	C1225.642212,338.084412 1203.396606,337.775085 1190.836426,330.108185 
	C1181.038818,324.127594 1177.232300,314.808838 1178.253418,303.688721 
	C1179.216797,293.196808 1184.761597,285.418457 1194.751953,281.889648 
	C1200.463989,279.872040 1206.689209,278.964172 1212.761719,278.398224 
	C1220.040527,277.719849 1227.404663,277.761169 1234.728638,277.833801 
	C1239.242798,277.878540 1240.123413,275.887299 1239.340088,271.928558 
	C1237.865234,264.475586 1232.931885,260.078796 1224.687988,259.386200 
	C1214.977539,258.570404 1205.782471,260.323730 1197.264771,265.205536 
	C1195.841309,266.021454 1194.401001,266.808472 1192.583252,267.824066 
	C1189.243164,262.058899 1186.030273,256.513397 1182.461670,250.354095 
	C1195.949707,240.864288 1210.972168,237.470123 1227.563965,237.892334 
M1229.407104,293.431152 
	C1223.921631,293.603027 1218.405762,293.475403 1212.959473,294.031433 
	C1207.564331,294.582153 1203.657593,298.941986 1203.284668,303.907288 
	C1202.903076,308.989258 1205.983643,313.527496 1211.248047,315.204407 
	C1218.437500,317.494537 1225.514648,316.887909 1231.898071,312.902130 
	C1234.442261,311.313660 1237.153931,308.769135 1238.057495,306.078247 
	C1239.268311,302.472595 1239.285278,298.220123 1238.648193,294.442169 
	C1238.516724,293.663116 1233.255371,293.749268 1229.407104,293.431152 
z"/>
<path fill="#273772" opacity="1.000000" stroke="none" 
	d="
M1390.932739,261.098083 
	C1376.958862,261.430969 1369.008057,269.160583 1368.554688,283.626709 
	C1368.095825,298.270813 1368.507202,312.942200 1368.536255,327.601624 
	C1368.539795,329.391663 1368.536743,331.181702 1368.536743,333.318542 
	C1359.625366,333.318542 1351.246826,333.318542 1342.550537,333.318542 
	C1342.428345,331.554108 1342.243530,330.105042 1342.240479,328.655579 
	C1342.182129,300.167664 1342.201050,271.679413 1342.028687,243.192276 
	C1342.008301,239.832520 1343.108765,238.765320 1346.298462,238.877853 
	C1351.624023,239.065765 1356.968262,239.223373 1362.285156,238.974564 
	C1365.832153,238.808578 1367.064087,240.281891 1367.122925,243.537338 
	C1367.163940,245.805954 1367.443115,248.070267 1367.692871,251.346771 
	C1369.421753,249.990601 1370.458740,249.340820 1371.297485,248.494629 
	C1383.608765,236.073685 1398.478638,235.020004 1413.879517,240.169540 
	C1428.506226,245.060242 1435.342529,257.126770 1435.989380,271.675415 
	C1436.896484,292.076202 1436.218384,312.547516 1436.218384,333.621887 
	C1428.244263,333.621887 1420.457642,333.764618 1412.692017,333.425262 
	C1411.809570,333.386719 1410.359863,330.651855 1410.333862,329.147217 
	C1410.095459,315.322723 1410.119019,301.493866 1410.049683,287.666351 
	C1410.038086,285.334839 1410.030396,282.998230 1409.878418,280.673309 
	C1409.090088,268.619690 1403.367310,262.582489 1390.932739,261.098083 
z"/>
<path fill="#253270" opacity="1.000000" stroke="none" 
	d="
M829.102478,311.531677 
	C841.157410,314.306824 850.518616,311.091278 856.973816,300.443085 
	C863.901672,303.376617 870.667908,306.075562 877.213501,309.232147 
	C877.996216,309.609589 878.322388,312.935638 877.595154,314.114258 
	C873.234375,321.180847 867.381165,326.964386 859.720764,330.243530 
	C841.757019,337.933136 823.967651,337.382812 807.054443,327.231323 
	C791.517822,317.906067 782.882263,297.506104 786.318604,278.144012 
	C789.838745,258.309357 801.450073,244.772095 820.868164,239.521240 
	C840.327332,234.259277 858.589111,237.369781 873.592896,252.094986 
	C876.124756,254.579788 877.939331,257.795319 880.295776,260.955475 
	C872.665283,264.464264 865.798584,267.708008 858.825073,270.703125 
	C858.078796,271.023651 856.384705,270.184448 855.679871,269.393463 
	C848.158875,260.952667 838.553040,258.056641 828.851440,261.465729 
	C819.390076,264.790436 813.227295,273.511108 812.606628,284.452820 
	C811.859131,297.630676 817.898560,307.729706 829.102478,311.531677 
z"/>
<path fill="#212A67" opacity="1.000000" stroke="none" 
	d="
M402.856384,388.155884 
	C402.313507,387.957397 401.770599,387.758911 401.046936,386.978699 
	C394.930603,382.552155 388.901642,378.841949 383.095673,374.810608 
	C379.786041,372.512634 376.840363,369.690491 374.113129,367.045471 
	C377.524445,365.398346 380.783417,364.125061 383.515045,362.129822 
	C386.039886,360.285553 387.595795,356.637482 390.283997,355.583496 
	C398.406494,352.399017 404.174622,346.284546 410.565247,340.910217 
	C414.398529,337.686554 418.114624,334.323639 422.182343,331.149445 
	C423.278442,331.531158 424.075562,331.786713 424.872711,332.042267 
	C425.073944,332.071136 425.275208,332.100006 425.759430,332.605896 
	C426.688812,333.381866 427.335236,333.680786 427.981689,333.979706 
	C431.790466,336.349213 435.599213,338.718719 439.736267,341.591644 
	C440.696503,342.388489 441.328491,342.681946 441.960449,342.975372 
	C442.149567,343.005127 442.338654,343.034851 442.812561,343.545837 
	C444.374451,344.676941 445.651581,345.326782 446.928711,345.976654 
	C447.128204,346.009338 447.327728,346.042053 447.798798,346.566772 
	C448.734619,347.330994 449.398895,347.603180 450.063141,347.875366 
	C450.242371,347.932465 450.421570,347.989532 450.851105,348.544617 
	C451.782410,349.308746 452.463379,349.574921 453.144379,349.841064 
	C453.945862,350.244232 454.747314,350.647430 455.805450,351.596741 
	C456.694885,352.413361 457.327667,352.683807 457.960480,352.954254 
	C459.669373,354.614990 461.378265,356.275696 463.136200,358.643951 
	C463.812531,365.397430 464.907257,371.439514 464.957550,377.490265 
	C465.033051,386.573975 464.376190,395.663788 464.030731,404.751007 
	C463.582153,405.778320 463.133606,406.805634 462.048584,407.968597 
	C460.989502,408.762360 460.566864,409.420410 460.144226,410.078461 
	C460.144226,410.078461 460.114166,410.113556 459.723267,410.107361 
	C453.348267,413.155060 447.312897,414.665131 440.937988,411.081573 
	C439.393890,410.213562 437.617188,409.759338 435.947418,409.114838 
	C435.759155,409.053467 435.570862,408.992065 435.150635,408.412354 
	C434.252014,407.639130 433.585297,407.384308 432.918579,407.129456 
	C432.734955,407.061493 432.551361,406.993500 432.129120,406.387543 
	C426.939819,402.923004 421.989166,399.996460 417.038513,397.069885 
	C416.839203,397.016418 416.639862,396.962952 416.164307,396.390930 
	C411.544159,393.300232 407.200287,390.728058 402.856384,388.155884 
z"/>
<path fill="#2D3C76" opacity="1.000000" stroke="none" 
	d="
M617.309326,259.999634 
	C617.321533,252.169983 617.084900,244.827896 617.446045,237.515350 
	C617.660767,233.167755 616.089539,232.190659 612.021973,232.337204 
	C602.370483,232.684937 592.702209,232.572968 583.040527,232.620743 
	C581.588806,232.627914 580.136414,232.494843 578.417542,232.414108 
	C578.417542,225.432770 578.243103,218.820450 578.604126,212.237503 
	C578.658752,211.241074 581.191223,209.605576 582.601013,209.580383 
	C594.424622,209.369186 606.253723,209.471802 618.081177,209.466965 
	C638.571045,209.458603 659.061829,209.536880 679.549988,209.342148 
	C683.410889,209.305435 684.952942,210.211090 684.728516,214.305145 
	C684.411011,220.097458 684.648010,225.920181 684.648010,232.623459 
	C680.047302,232.623459 675.798157,232.617279 671.549011,232.624832 
	C664.552490,232.637283 657.542297,232.930206 650.564514,232.577560 
	C646.150879,232.354507 644.882935,233.723755 644.910034,238.147003 
	C645.091736,267.797882 645.005371,297.450378 645.005920,327.102356 
	C645.005981,329.056854 645.005920,331.011322 645.005920,333.588287 
	C636.143799,333.588287 627.856262,333.717651 619.587158,333.386414 
	C618.768066,333.353638 617.411987,330.511383 617.401306,328.965515 
	C617.260498,308.643250 617.317444,288.319641 617.323303,267.996368 
	C617.324036,265.497467 617.315918,262.998535 617.309326,259.999634 
M642.601196,264.277863 
	C642.078369,262.548767 641.044861,260.795013 641.127014,259.095123 
	C641.389709,253.657257 642.164307,248.246246 642.544128,242.811081 
	C642.757629,239.756454 642.582581,236.674683 642.582581,233.605133 
	C641.345642,234.189575 641.003113,234.800537 641.040771,235.387070 
	C641.338806,240.025375 639.904358,241.859726 634.869141,240.303635 
	C632.752808,239.649597 630.046875,240.675415 627.662537,241.186874 
	C625.659973,241.616440 623.735046,242.407745 621.384521,243.164948 
	C621.088135,239.469650 620.852356,236.529587 620.616516,233.589539 
	C620.191040,233.627289 619.765503,233.665024 619.339966,233.702774 
	C619.339966,239.535919 619.321777,245.369263 619.381470,251.201813 
	C619.385376,251.583725 620.224976,251.936325 620.264343,252.342392 
	C620.399231,253.736755 620.531006,255.175323 620.328918,256.547729 
	C620.051270,258.433929 618.994019,260.301819 619.096985,262.131042 
	C619.565674,270.457977 620.620667,278.758606 620.900757,287.087677 
	C621.230713,296.899078 620.981262,306.730042 620.979858,316.552521 
	C620.978149,328.632233 620.976868,328.631805 632.454651,330.699951 
	C632.781067,330.758759 633.099121,330.887512 633.426636,330.913635 
	C638.424744,331.312866 641.936340,329.371063 641.993713,325.932831 
	C642.332214,305.664886 642.587830,285.395599 642.601196,264.277863 
z"/>
<path fill="#263673" opacity="1.000000" stroke="none" 
	d="
M1120.186768,333.612244 
	C1117.613281,333.613953 1115.512329,333.613953 1113.152344,333.613953 
	C1113.055054,331.462769 1112.933594,330.004639 1112.931152,328.546295 
	C1112.883301,300.409210 1112.916382,272.271729 1112.733398,244.135590 
	C1112.708618,240.318222 1113.502441,238.788986 1117.667603,239.023346 
	C1124.275024,239.395126 1130.918823,239.122498 1137.773560,239.122498 
	C1138.171997,243.318741 1138.521729,247.003525 1139.018311,252.233383 
	C1147.592773,242.463837 1156.998901,237.337585 1169.992798,237.576736 
	C1169.992798,245.004211 1170.090332,252.235474 1169.854614,259.455841 
	C1169.828613,260.249908 1167.973267,261.455566 1166.826782,261.650909 
	C1163.728760,262.178802 1160.496460,261.967621 1157.422729,262.579010 
	C1146.354248,264.780609 1139.379517,273.068726 1139.257446,284.366241 
	C1139.100708,298.849060 1139.223145,313.334961 1139.225342,327.819519 
	C1139.225586,329.596863 1139.225220,331.374176 1139.225220,333.610565 
	C1132.586426,333.610565 1126.622803,333.610565 1120.186768,333.612244 
z"/>
<path fill="#2C3F7A" opacity="1.000000" stroke="none" 
	d="
M1079.000000,209.454269 
	C1087.775635,209.454483 1096.051270,209.454483 1104.605957,209.454483 
	C1104.605957,217.314697 1104.605957,224.573242 1104.605957,232.692352 
	C1100.088745,232.692352 1095.656494,232.693527 1091.224365,232.692062 
	C1084.229614,232.689758 1077.221436,232.947220 1070.244873,232.589661 
	C1065.654785,232.354431 1064.239868,233.781250 1064.283569,238.457443 
	C1064.559448,267.933319 1064.548584,297.411957 1064.617310,326.889679 
	C1064.633057,333.645050 1064.606201,333.641022 1057.875977,333.630951 
	C1052.546631,333.622986 1047.201904,333.377777 1041.893188,333.707977 
	C1037.996460,333.950348 1037.168823,332.476746 1037.176270,328.847839 
	C1037.236938,299.038452 1037.101440,269.228699 1037.044922,239.419022 
	C1037.031738,232.466614 1037.065918,232.491821 1029.895142,232.520935 
	C1020.402405,232.559464 1010.906433,232.418289 1001.418518,232.640366 
	C998.106628,232.717850 996.966309,231.699997 997.126770,228.406357 
	C997.361450,223.587112 997.494507,218.730957 997.160889,213.925964 
	C996.885742,209.963623 998.474854,209.241165 1002.057556,209.265671 
	C1027.537598,209.439880 1053.019043,209.415314 1079.000000,209.454269 
M1039.911621,238.381317 
	C1039.671997,238.297318 1039.432495,238.213333 1039.192871,238.129333 
	C1039.127808,238.595184 1039.005737,239.061005 1039.005615,239.526855 
	C1038.995972,268.798462 1038.992676,298.070038 1039.011475,327.341644 
	C1039.012085,328.310883 1039.215942,329.287537 1039.443726,330.232117 
	C1039.458984,330.295044 1040.487915,330.113403 1041.976562,330.030090 
	C1046.299072,330.025757 1050.621704,330.020996 1054.944214,330.017181 
	C1061.718018,330.011261 1062.252441,329.555878 1062.946533,322.932556 
	C1063.067139,321.780579 1062.989258,320.606934 1062.989136,319.443268 
	C1062.986450,293.175476 1062.982056,266.907684 1062.976196,240.639908 
	C1062.975952,239.476303 1063.365601,238.054459 1062.837402,237.218079 
	C1062.249512,236.287354 1060.366821,235.080383 1059.822021,235.383789 
	C1053.596924,238.849854 1046.541382,237.376007 1039.911621,238.381317 
z"/>
<path fill="#1F4683" opacity="1.000000" stroke="none" 
	d="
M492.866821,236.621704 
	C501.718140,230.669861 510.537354,224.669479 519.436035,218.789322 
	C523.143250,216.339615 527.019653,214.145966 531.607483,211.867126 
	C536.453674,211.853806 540.511414,211.809235 544.569214,211.764648 
	C546.816040,213.537506 549.062866,215.310364 551.015442,217.666290 
	C550.038025,222.398743 548.178467,224.787720 543.442261,225.304825 
	C540.780273,225.595490 538.031860,227.774246 535.901550,229.732422 
	C530.420044,234.770996 525.616638,240.590469 519.898010,245.318771 
	C508.756317,254.531113 497.199585,263.243561 485.765045,272.098816 
	C479.109955,277.252747 472.617493,282.678528 465.588623,287.273346 
	C455.359802,293.959961 448.074982,305.864471 433.837830,305.635651 
	C433.533234,305.630707 433.224579,305.878235 432.606262,305.864716 
	C430.424072,304.905121 428.553467,304.088837 426.682861,303.272522 
	C425.311768,302.268982 423.940643,301.265411 422.342529,299.772339 
	C427.289093,299.352386 430.700470,296.434662 434.249664,293.005280 
	C442.804657,284.739014 451.746277,276.870178 460.604370,268.921753 
	C463.757477,266.092468 467.000702,263.333954 470.414185,260.831451 
	C475.564758,257.055450 481.833588,254.729004 484.884888,248.362946 
	C485.853821,246.341415 487.768738,244.071487 489.756622,243.389191 
	C493.652069,242.052155 494.123322,239.931656 492.866821,236.621704 
z"/>
<path fill="#273772" opacity="1.000000" stroke="none" 
	d="
M1290.554565,307.999603 
	C1290.516113,286.543365 1290.642578,265.584564 1290.315552,244.632843 
	C1290.239624,239.761902 1291.892944,238.653778 1296.306763,238.912476 
	C1301.775757,239.232971 1307.291992,238.759598 1312.758545,239.099838 
	C1314.063721,239.181107 1316.330688,241.119919 1316.338623,242.217468 
	C1316.554321,272.146698 1316.535034,302.077637 1316.537354,332.008270 
	C1316.537354,332.308594 1316.300171,332.608948 1315.890991,333.580292 
	C1308.437988,333.580292 1300.682129,333.706238 1292.943481,333.399384 
	C1292.103638,333.366089 1290.731567,330.852600 1290.683228,329.452362 
	C1290.442383,322.474945 1290.561768,315.485107 1290.554565,307.999603 
z"/>
<path fill="#233070" opacity="1.000000" stroke="none" 
	d="
M542.027588,275.614929 
	C541.879517,275.744568 541.731445,275.874268 541.017944,276.019226 
	C539.963867,276.522766 539.475220,277.011078 538.986511,277.499390 
	C538.846558,277.639862 538.706543,277.780365 538.014587,277.985229 
	C536.962463,278.514435 536.462341,278.979309 535.962219,279.444153 
	C535.225281,279.982300 534.488342,280.520447 533.084534,281.074768 
	C530.942261,282.228485 529.466919,283.366058 527.991516,284.503601 
	C527.852905,284.653320 527.714233,284.803040 527.014404,284.993286 
	C525.956909,285.482056 525.460571,285.930328 524.964233,286.378601 
	C524.819275,286.538513 524.674255,286.698425 523.876343,286.953918 
	C518.474792,290.128235 513.726257,293.206970 508.977753,296.285706 
	C508.840942,296.469666 508.704163,296.653595 507.941132,296.948364 
	C506.212463,297.904968 505.109985,298.750671 504.007507,299.596375 
	C503.874969,299.728455 503.742401,299.860504 503.063904,300.039978 
	C502.007599,300.562744 501.497284,301.038025 500.986938,301.513306 
	C500.856079,301.655701 500.725250,301.798096 499.990112,302.017578 
	C497.926361,303.240173 496.466949,304.385651 495.007538,305.531128 
	C494.859894,305.667175 494.712250,305.803223 494.017334,305.996094 
	C492.969727,306.488281 492.469330,306.923676 491.968933,307.359070 
	C491.809845,307.507477 491.650757,307.655914 490.928955,307.903564 
	C489.903839,308.447205 489.441376,308.891632 488.978943,309.336090 
	C488.214630,309.876068 487.450317,310.416077 486.072937,311.006317 
	C484.971039,311.497986 484.482208,311.939392 483.993378,312.380829 
	C483.852356,312.552155 483.711365,312.723480 482.998840,312.968750 
	C481.950012,313.479523 481.472717,313.916351 480.995422,314.353210 
	C480.843353,314.522552 480.691254,314.691864 479.899292,314.960815 
	C477.836975,316.158112 476.414520,317.255707 474.992004,318.353333 
	C474.200592,318.888306 473.409149,319.423309 471.943695,319.993439 
	C470.238495,320.659393 469.207336,321.290253 468.176208,321.921143 
	C467.742889,322.062439 467.309570,322.203766 466.106140,322.210815 
	C459.068451,322.305664 453.492859,320.618134 449.109833,315.862488 
	C452.775421,312.924011 455.943207,308.706940 459.793152,307.947388 
	C467.899872,306.347992 471.707397,300.160461 476.938354,295.292084 
	C480.244080,292.215485 484.045715,289.660797 487.696838,286.969604 
	C490.839233,284.653412 494.273529,282.699249 497.237366,280.182953 
	C501.504913,276.559845 504.952026,271.707794 509.661713,268.923706 
	C518.966919,263.423004 527.561768,257.265137 535.115845,249.512756 
	C538.551392,245.987000 542.515564,242.897095 546.561768,240.070007 
	C549.964844,237.692230 553.051575,235.641068 552.127014,230.697205 
	C551.923523,229.608719 553.279297,228.228638 553.948303,227.452499 
	C553.714722,240.353485 553.449829,252.784805 553.184937,265.216125 
	C551.363831,267.468964 549.542725,269.721802 547.065308,272.048096 
	C544.948486,273.285980 543.488037,274.450439 542.027588,275.614929 
z"/>
<path fill="#3392D0" opacity="1.000000" stroke="none" 
	d="
M544.589600,112.761497 
	C544.931091,112.861351 545.272522,112.961205 545.885620,113.553848 
	C546.867004,114.319344 547.576782,114.592041 548.286499,114.864746 
	C549.288086,115.946098 550.289673,117.027443 551.058899,118.610321 
	C549.736267,120.067398 548.737427,121.160469 547.540955,121.956161 
	C539.756104,127.133064 531.737244,131.981979 524.178101,137.466309 
	C518.621521,141.497726 513.973267,146.800171 508.348450,150.714462 
	C496.192322,159.173874 482.195831,164.858719 472.337677,176.793945 
	C468.414856,181.543320 462.262695,184.487778 457.021851,188.103714 
	C448.927094,193.688736 440.743256,199.144669 432.597229,204.655396 
	C431.519592,203.862457 430.441925,203.069519 429.188477,201.655853 
	C428.134003,200.017136 427.255341,198.999130 426.376648,197.981125 
	C426.102173,197.081421 425.827698,196.181702 425.733215,194.500031 
	C426.076172,192.317047 426.239166,190.916016 426.495850,188.709381 
	C427.683136,190.181931 428.325073,190.978104 428.932434,191.731415 
	C432.372925,189.105972 435.270325,185.605621 438.938507,184.340942 
	C449.358246,180.748520 455.388153,171.731262 463.452209,165.355270 
	C472.075165,158.537399 478.006256,148.757980 488.555237,143.650238 
	C497.836884,139.156143 506.461823,133.163757 514.933899,127.203529 
	C518.773621,124.502228 521.541321,120.277122 524.795349,116.743301 
	C524.795349,116.743309 524.960449,116.868568 525.201355,116.871277 
	C525.962830,116.275894 526.483337,115.677795 527.003906,115.079697 
	C527.003906,115.079689 527.268005,114.846016 527.863037,114.868988 
	C533.835266,114.181801 539.212402,113.471649 544.589600,112.761497 
z"/>
<path fill="#2D71AD" opacity="1.000000" stroke="none" 
	d="
M553.464722,122.986404 
	C553.958801,124.661873 554.831543,126.325714 554.883423,128.014786 
	C555.154175,136.825836 555.049133,145.649902 555.398193,154.456635 
	C555.743835,163.178467 551.912842,169.387787 544.757996,173.912689 
	C521.042542,188.911118 497.345520,203.938797 473.621552,218.923813 
	C466.495819,223.424744 458.100098,223.139832 451.172546,218.240036 
	C449.556488,217.097061 448.041931,215.810577 446.744080,214.287018 
	C453.019592,211.822449 458.978699,209.496979 465.054779,207.533508 
	C477.865112,203.393860 488.202667,195.671600 497.451447,186.125244 
	C503.519287,179.862137 510.857422,175.508865 519.284851,172.997772 
	C521.447693,172.353348 523.618896,171.333527 525.438965,170.009048 
	C535.662598,162.569443 542.275208,151.885529 549.768372,142.059891 
	C551.780334,139.421677 551.972473,135.395660 553.002380,131.528946 
	C553.158081,128.362915 553.311401,125.674660 553.464722,122.986404 
z"/>
<path fill="#1E3977" opacity="1.000000" stroke="none" 
	d="
M553.916992,226.982834 
	C553.279297,228.228638 551.923523,229.608719 552.127014,230.697205 
	C553.051575,235.641068 549.964844,237.692230 546.561768,240.070007 
	C542.515564,242.897095 538.551392,245.987000 535.115845,249.512756 
	C527.561768,257.265137 518.966919,263.423004 509.661713,268.923706 
	C504.952026,271.707794 501.504913,276.559845 497.237366,280.182953 
	C494.273529,282.699249 490.839233,284.653412 487.696838,286.969604 
	C484.045715,289.660797 480.244080,292.215485 476.938354,295.292084 
	C471.707397,300.160461 467.899872,306.347992 459.793152,307.947388 
	C455.943207,308.706940 452.775421,312.924011 448.805786,315.698822 
	C443.181274,312.551270 438.049530,309.279633 432.917816,306.007996 
	C433.224579,305.878235 433.533234,305.630707 433.837830,305.635651 
	C448.074982,305.864471 455.359802,293.959961 465.588623,287.273346 
	C472.617493,282.678528 479.109955,277.252747 485.765045,272.098816 
	C497.199585,263.243561 508.756317,254.531113 519.898010,245.318771 
	C525.616638,240.590469 530.420044,234.770996 535.901550,229.732422 
	C538.031860,227.774246 540.780273,225.595490 543.442261,225.304825 
	C548.178467,224.787720 550.038025,222.398743 551.045776,218.020081 
	C551.622192,217.991318 551.874146,218.191803 552.112183,218.899902 
	C552.352966,219.603882 552.607544,219.800262 552.862183,219.996658 
	C552.862183,219.996658 552.975891,219.966705 552.970459,220.401855 
	C552.986633,221.851654 553.008118,222.866287 553.101746,224.109573 
	C553.329285,224.631027 553.559753,224.841705 553.897949,225.304993 
	C553.926147,226.087418 553.921570,226.535126 553.916992,226.982834 
z"/>
<path fill="#2D85C4" opacity="1.000000" stroke="none" 
	d="
M553.533081,122.700409 
	C553.311401,125.674660 553.158081,128.362915 552.652100,131.562027 
	C545.227539,137.187759 538.020630,142.128204 531.124023,147.469360 
	C524.930481,152.266022 519.349426,157.882980 512.989807,162.426437 
	C507.823395,166.117386 501.842590,168.651016 496.349030,171.910355 
	C494.290497,173.131699 492.473846,174.836273 490.746033,176.524338 
	C486.749420,180.429108 483.432831,185.338943 478.834534,188.254929 
	C469.063263,194.451370 458.570618,199.499329 448.561798,205.340347 
	C446.264618,206.680954 444.727264,209.323563 442.840271,211.367004 
	C439.533936,209.312424 436.227631,207.257828 432.759277,204.929321 
	C440.743256,199.144669 448.927094,193.688736 457.021851,188.103714 
	C462.262695,184.487778 468.414856,181.543320 472.337677,176.793945 
	C482.195831,164.858719 496.192322,159.173874 508.348450,150.714462 
	C513.973267,146.800171 518.621521,141.497726 524.178101,137.466309 
	C531.737244,131.981979 539.756104,127.133064 547.540955,121.956161 
	C548.737427,121.160469 549.736267,120.067398 551.162476,118.914833 
	C552.199463,119.950012 552.900452,121.182220 553.533081,122.700409 
z"/>
<path fill="#1F4683" opacity="1.000000" stroke="none" 
	d="
M341.672211,339.888123 
	C341.602234,335.915070 341.532227,331.941986 341.944885,327.473175 
	C348.229584,323.818726 353.981323,320.562653 359.849426,317.531799 
	C364.656494,315.048981 370.184082,313.566376 374.313171,310.283173 
	C378.015106,307.339630 381.720154,306.497986 385.094604,308.379333 
	C392.985718,312.778839 400.395630,318.041412 407.946716,323.303162 
	C399.639923,328.604401 391.240112,333.330841 383.168945,338.564148 
	C371.847229,345.905060 359.673920,350.103119 345.926025,349.721252 
	C344.380035,346.233612 343.026123,343.060883 341.672211,339.888123 
z"/>
<path fill="#26609E" opacity="1.000000" stroke="none" 
	d="
M435.151001,236.959686 
	C443.241882,241.556305 451.332733,246.152939 459.426453,251.214050 
	C457.851593,251.976791 455.786743,251.739792 454.775482,252.660278 
	C448.285553,258.567352 442.151245,264.865784 435.646790,270.755890 
	C431.513245,274.499023 426.639069,277.447571 422.654175,281.324982 
	C418.746918,285.126862 415.545013,289.653595 412.033539,293.862183 
	C402.490875,287.921295 392.948242,281.980377 383.676666,275.628754 
	C391.923859,271.682220 400.321686,268.851593 407.754181,264.406769 
	C414.796722,260.195160 420.976379,254.464508 427.246216,249.065857 
	C430.954803,245.872543 435.080597,242.658401 435.151001,236.959686 
z"/>
<path fill="#2B7BB9" opacity="1.000000" stroke="none" 
	d="
M442.914520,211.647369 
	C444.727264,209.323563 446.264618,206.680954 448.561798,205.340347 
	C458.570618,199.499329 469.063263,194.451370 478.834534,188.254929 
	C483.432831,185.338943 486.749420,180.429108 490.746033,176.524338 
	C492.473846,174.836273 494.290497,173.131699 496.349030,171.910355 
	C501.842590,168.651016 507.823395,166.117386 512.989807,162.426437 
	C519.349426,157.882980 524.930481,152.266022 531.124023,147.469360 
	C538.020630,142.128204 545.227539,137.187759 552.649658,132.039795 
	C551.972473,135.395660 551.780334,139.421677 549.768372,142.059891 
	C542.275208,151.885529 535.662598,162.569443 525.438965,170.009048 
	C523.618896,171.333527 521.447693,172.353348 519.284851,172.997772 
	C510.857422,175.508865 503.519287,179.862137 497.451447,186.125244 
	C488.202667,195.671600 477.865112,203.393860 465.054779,207.533508 
	C458.978699,209.496979 453.019592,211.822449 446.636353,213.979385 
	C446.265198,213.974854 446.040588,213.996490 445.871155,213.717804 
	C445.463196,213.234695 445.189392,213.104111 444.880341,213.047394 
	C444.249817,212.674164 443.619293,212.300949 442.914520,211.647369 
z"/>
<path fill="#3392D0" opacity="1.000000" stroke="none" 
	d="
M392.673065,210.668701 
	C392.995087,210.766083 393.317108,210.863464 393.885437,211.462738 
	C394.860199,212.263901 395.588684,212.563187 396.317169,212.862473 
	C399.282471,214.630157 402.247772,216.397842 404.988800,218.446014 
	C401.848877,219.356812 398.355682,219.174561 396.121063,220.762985 
	C387.963654,226.561432 380.408691,233.204742 372.278107,239.044327 
	C364.460510,244.659119 356.968292,251.490356 345.950684,249.815826 
	C345.304199,249.385223 344.813721,249.182053 344.323242,248.978867 
	C343.292480,244.097900 342.060974,239.247528 341.310059,234.323883 
	C340.893433,231.592392 341.279510,228.738495 341.796448,225.501923 
	C344.369690,225.247055 346.804962,226.218582 348.466888,225.470947 
	C354.378998,222.811432 360.107880,219.706955 365.746246,216.490677 
	C369.143005,214.553070 372.948669,212.659286 375.291443,209.724640 
	C377.959869,206.382141 380.291656,204.317047 384.601562,205.763962 
	C385.916046,206.424454 387.230560,207.084930 388.821320,208.336868 
	C390.289429,209.508453 391.481232,210.088577 392.673065,210.668701 
z"/>
<path fill="#1E3977" opacity="1.000000" stroke="none" 
	d="
M346.118134,350.036163 
	C359.673920,350.103119 371.847229,345.905060 383.168945,338.564148 
	C391.240112,333.330841 399.639923,328.604401 408.298340,323.367981 
	C411.928802,324.648712 415.153961,326.213257 418.379150,327.777832 
	C419.451904,328.396454 420.524658,329.015045 421.757080,330.102173 
	C421.916687,330.570709 421.883392,331.023285 421.883392,331.023285 
	C418.114624,334.323639 414.398529,337.686554 410.565247,340.910217 
	C404.174622,346.284546 398.406494,352.399017 390.283997,355.583496 
	C387.595795,356.637482 386.039886,360.285553 383.515045,362.129822 
	C380.783417,364.125061 377.524445,365.398346 373.754547,367.037201 
	C371.658875,366.585724 370.215546,366.244171 368.964386,365.554199 
	C362.815704,362.163391 356.718140,358.680023 350.602509,355.229340 
	C349.106598,354.073425 347.610687,352.917511 346.080566,351.180023 
	C346.070312,350.411011 346.094238,350.223572 346.118134,350.036163 
z"/>
<path fill="#20518F" opacity="1.000000" stroke="none" 
	d="
M412.160400,294.195068 
	C415.545013,289.653595 418.746918,285.126862 422.654175,281.324982 
	C426.639069,277.447571 431.513245,274.499023 435.646790,270.755890 
	C442.151245,264.865784 448.285553,258.567352 454.775482,252.660278 
	C455.786743,251.739792 457.851593,251.976791 459.657562,251.468048 
	C462.305023,251.190170 464.724152,251.122787 467.801880,251.322052 
	C470.315033,250.497467 472.169586,249.406265 474.024109,248.315033 
	C480.060486,244.430344 486.096832,240.545670 492.500000,236.641342 
	C494.123322,239.931656 493.652069,242.052155 489.756622,243.389191 
	C487.768738,244.071487 485.853821,246.341415 484.884888,248.362946 
	C481.833588,254.729004 475.564758,257.055450 470.414185,260.831451 
	C467.000702,263.333954 463.757477,266.092468 460.604370,268.921753 
	C451.746277,276.870178 442.804657,284.739014 434.249664,293.005280 
	C430.700470,296.434662 427.289093,299.352386 422.055939,299.614075 
	C418.760010,298.139557 415.523651,296.333771 412.160400,294.195068 
z"/>
<path fill="#2C5A95" opacity="1.000000" stroke="none" 
	d="
M418.187653,327.503845 
	C415.153961,326.213257 411.928802,324.648712 408.351990,323.019318 
	C400.395630,318.041412 392.985718,312.778839 385.094604,308.379333 
	C381.720154,306.497986 378.015106,307.339630 374.313171,310.283173 
	C370.184082,313.566376 364.656494,315.048981 359.849426,317.531799 
	C353.981323,320.562653 348.229584,323.818726 342.053284,327.026031 
	C341.603607,319.776611 340.757294,312.385071 341.628571,305.201874 
	C343.028137,293.663300 357.108704,288.037537 367.299469,294.524048 
	C381.464050,303.539948 395.530701,312.709625 409.638000,321.815491 
	C412.427032,323.615723 415.210266,325.424835 418.187653,327.503845 
z"/>
<path fill="#2D85C4" opacity="1.000000" stroke="none" 
	d="
M346.106659,250.043228 
	C356.968292,251.490356 364.460510,244.659119 372.278107,239.044327 
	C380.408691,233.204742 387.963654,226.561432 396.121063,220.762985 
	C398.355682,219.174561 401.848877,219.356812 405.175507,218.744598 
	C409.180695,220.847992 412.774933,222.933289 416.159668,225.425079 
	C411.494843,228.526718 406.815338,230.915634 402.629974,233.979492 
	C393.343811,240.777374 384.436859,248.096664 375.092224,254.809311 
	C371.974945,257.048584 368.121368,258.704956 364.368561,259.468109 
	C361.696167,260.011536 358.629272,258.614960 355.738434,258.084167 
	C352.568939,255.942795 349.399445,253.801437 346.139709,251.102097 
	C346.068542,250.377151 346.087585,250.210190 346.106659,250.043228 
z"/>
<path fill="#3DA0DC" opacity="1.000000" stroke="none" 
	d="
M384.407532,205.469437 
	C380.291656,204.317047 377.959869,206.382141 375.291443,209.724640 
	C372.948669,212.659286 369.143005,214.553070 365.746246,216.490677 
	C360.107880,219.706955 354.378998,222.811432 348.466888,225.470947 
	C346.804962,226.218582 344.369690,225.247055 341.933258,225.068008 
	C341.474457,218.435898 340.726562,211.732056 341.415497,205.179276 
	C342.526581,194.611282 355.708679,188.034927 365.283691,193.181442 
	C371.846466,196.708893 377.920837,201.144989 384.407532,205.469437 
z"/>
<path fill="#3DA0DC" opacity="1.000000" stroke="none" 
	d="
M524.442017,116.764175 
	C521.541321,120.277122 518.773621,124.502228 514.933899,127.203529 
	C506.461823,133.163757 497.836884,139.156143 488.555237,143.650238 
	C478.006256,148.757980 472.075165,158.537399 463.452209,165.355270 
	C455.388153,171.731262 449.358246,180.748520 438.938507,184.340942 
	C435.270325,185.605621 432.372925,189.105972 428.932434,191.731415 
	C428.325073,190.978104 427.683136,190.181931 426.495850,188.709381 
	C426.239166,190.916016 426.076172,192.317047 425.842377,194.153412 
	C422.399170,188.053558 424.850098,179.054321 432.127930,174.303101 
	C444.067902,166.508301 456.364807,159.262054 468.460144,151.702835 
	C487.025696,140.099930 505.547974,128.427811 524.442017,116.764175 
z"/>
<path fill="#2D71AD" opacity="1.000000" stroke="none" 
	d="
M435.026489,236.730743 
	C435.080597,242.658401 430.954803,245.872543 427.246216,249.065857 
	C420.976379,254.464508 414.796722,260.195160 407.754181,264.406769 
	C400.321686,268.851593 391.923859,271.682220 383.479340,275.322113 
	C382.383575,275.245392 381.756256,275.064575 380.890930,274.313812 
	C380.239624,273.536926 379.826294,273.329987 379.412933,273.123108 
	C378.719391,272.877777 378.025879,272.632446 377.109924,271.827393 
	C376.178131,270.911407 375.468781,270.555145 374.759460,270.198914 
	C374.759460,270.198914 374.920105,270.139252 374.960327,269.834351 
	C375.149414,269.238739 375.220612,268.823608 375.458344,268.675140 
	C388.739563,260.379761 402.100433,252.202606 413.388397,241.153549 
	C416.863770,237.751724 420.442810,234.455795 423.614899,231.451813 
	C426.546936,232.692368 429.063934,233.757309 431.580933,234.822250 
	C432.687958,235.382095 433.794952,235.941956 435.026489,236.730743 
z"/>
<path fill="#2B7BB9" opacity="1.000000" stroke="none" 
	d="
M431.406128,234.513458 
	C429.063934,233.757309 426.546936,232.692368 423.614899,231.451813 
	C420.442810,234.455795 416.863770,237.751724 413.388397,241.153549 
	C402.100433,252.202606 388.739563,260.379761 375.458344,268.675140 
	C375.220612,268.823608 375.149414,269.238739 374.897827,269.892975 
	C368.540405,266.409790 362.285645,262.563110 355.884674,258.400269 
	C358.629272,258.614960 361.696167,260.011536 364.368561,259.468109 
	C368.121368,258.704956 371.974945,257.048584 375.092224,254.809311 
	C384.436859,248.096664 393.343811,240.777374 402.629974,233.979492 
	C406.815338,230.915634 411.494843,228.526718 416.377808,225.700714 
	C421.614105,228.448135 426.422729,231.326416 431.406128,234.513458 
z"/>
<path fill="#263673" opacity="1.000000" stroke="none" 
	d="
M1296.067383,198.040985 
	C1307.783203,193.662949 1317.150146,198.440460 1318.655151,209.196915 
	C1319.709595,216.734055 1315.330322,223.636032 1308.131226,225.783157 
	C1300.952393,227.924225 1292.432739,224.424423 1289.374268,218.077881 
	C1285.929932,210.930664 1288.354126,203.418091 1296.067383,198.040985 
z"/>
<path fill="#2C5A95" opacity="1.000000" stroke="none" 
	d="
M464.311249,404.603455 
	C464.376190,395.663788 465.033051,386.573975 464.957550,377.490265 
	C464.907257,371.439514 463.812531,365.397430 463.269409,358.942139 
	C464.486938,361.572174 466.442474,364.569244 466.601562,367.658813 
	C467.106476,377.462982 467.104584,387.304779 466.920013,397.124878 
	C466.873810,399.582245 465.406128,402.012939 464.311249,404.603455 
z"/>
<path fill="#2C5A95" opacity="1.000000" stroke="none" 
	d="
M350.769409,355.521118 
	C356.718140,358.680023 362.815704,362.163391 368.964386,365.554199 
	C370.215546,366.244171 371.658875,366.585724 373.372192,367.096130 
	C376.840363,369.690491 379.786041,372.512634 383.095673,374.810608 
	C388.901642,378.841949 394.930603,382.552155 400.871368,386.745575 
	C384.229858,376.667114 367.583099,366.240021 350.769409,355.521118 
z"/>
<path fill="#2C5A95" opacity="1.000000" stroke="none" 
	d="
M553.948303,227.452499 
	C553.921570,226.535126 553.926147,226.087418 553.832397,225.076294 
	C553.568909,224.224686 553.334045,224.014038 553.029663,223.880936 
	C553.008118,222.866287 552.986633,221.851654 552.988037,220.458008 
	C553.737976,221.801941 555.048157,223.508530 555.097046,225.250504 
	C555.409485,236.391098 555.537231,247.539871 555.487244,258.684906 
	C555.478027,260.743866 554.381714,262.797943 553.486023,265.035217 
	C553.449829,252.784805 553.714722,240.353485 553.948303,227.452499 
z"/>
<path fill="#2D71AD" opacity="1.000000" stroke="none" 
	d="
M432.606262,305.864716 
	C438.049530,309.279633 443.181274,312.551270 448.617004,315.986542 
	C453.492859,320.618134 459.068451,322.305664 465.761444,322.204346 
	C461.240845,325.030853 456.689667,322.838837 452.700348,320.456512 
	C443.946960,315.229218 435.541504,309.419250 426.838440,303.559875 
	C428.553467,304.088837 430.424072,304.905121 432.606262,305.864716 
z"/>
<path fill="#2C5A95" opacity="1.000000" stroke="none" 
	d="
M436.084442,409.408936 
	C437.617188,409.759338 439.393890,410.213562 440.937988,411.081573 
	C447.312897,414.665131 453.348267,413.155060 459.706696,410.123444 
	C452.853424,416.252472 445.977478,416.124878 436.084442,409.408936 
z"/>
<path fill="#2C5A95" opacity="1.000000" stroke="none" 
	d="
M417.164124,397.362427 
	C421.989166,399.996460 426.939819,402.923004 431.954620,406.151306 
	C427.109070,403.520386 422.199371,400.587677 417.164124,397.362427 
z"/>
<path fill="#2D71AD" opacity="1.000000" stroke="none" 
	d="
M509.300598,296.312744 
	C513.726257,293.206970 518.474792,290.128235 523.572083,287.064697 
	C519.155029,290.166473 514.389282,293.253113 509.300598,296.312744 
z"/>
<path fill="#3DA0DC" opacity="1.000000" stroke="none" 
	d="
M544.326660,112.449921 
	C539.212402,113.471649 533.835266,114.181801 528.039307,114.870499 
	C532.428040,109.859131 538.146179,110.393875 544.326660,112.449921 
z"/>
<path fill="#2C5A95" opacity="1.000000" stroke="none" 
	d="
M402.969788,388.461365 
	C407.200287,390.728058 411.544159,393.300232 415.937500,396.180298 
	C411.685669,393.914368 407.384460,391.340607 402.969788,388.461365 
z"/>
<path fill="#2C5A95" opacity="1.000000" stroke="none" 
	d="
M345.926025,349.721252 
	C346.094238,350.223572 346.070312,350.411011 345.982239,350.874451 
	C344.390137,347.607208 342.862244,344.063965 341.503296,340.204407 
	C343.026123,343.060883 344.380035,346.233612 345.926025,349.721252 
z"/>
<path fill="#2C5A95" opacity="1.000000" stroke="none" 
	d="
M544.328125,211.487915 
	C540.511414,211.809235 536.453674,211.853806 531.952393,211.852753 
	C535.564270,208.709488 539.803955,209.501572 544.328125,211.487915 
z"/>
<path fill="#26609E" opacity="1.000000" stroke="none" 
	d="
M473.683533,248.304367 
	C472.169586,249.406265 470.315033,250.497467 468.253357,251.361389 
	C469.811829,250.187302 471.577423,249.240494 473.683533,248.304367 
z"/>
<path fill="#2D71AD" opacity="1.000000" stroke="none" 
	d="
M542.347168,275.628357 
	C543.488037,274.450439 544.948486,273.285980 546.741577,272.159760 
	C545.604980,273.345947 544.135864,274.493866 542.347168,275.628357 
z"/>
<path fill="#2D71AD" opacity="1.000000" stroke="none" 
	d="
M475.294495,318.392212 
	C476.414520,317.255707 477.836975,316.158112 479.580872,315.083923 
	C478.467163,316.215271 477.032043,317.323212 475.294495,318.392212 
z"/>
<path fill="#2D71AD" opacity="1.000000" stroke="none" 
	d="
M528.309692,284.514282 
	C529.466919,283.366058 530.942261,282.228485 532.746338,281.146729 
	C531.592651,282.309998 530.110229,283.417450 528.309692,284.514282 
z"/>
<path fill="#2D71AD" opacity="1.000000" stroke="none" 
	d="
M495.320099,305.545593 
	C496.466949,304.385651 497.926361,303.240173 499.721619,302.127258 
	C498.582520,303.293274 497.107574,304.426697 495.320099,305.545593 
z"/>
<path fill="#2D71AD" opacity="1.000000" stroke="none" 
	d="
M468.371643,322.058105 
	C469.207336,321.290253 470.238495,320.659393 471.591797,320.084534 
	C470.798340,320.825348 469.682678,321.510223 468.371643,322.058105 
z"/>
<path fill="#3DA0DC" opacity="1.000000" stroke="none" 
	d="
M426.349792,198.287689 
	C427.255341,198.999130 428.134003,200.017136 429.016785,201.354965 
	C428.121521,200.647949 427.222198,199.621109 426.349792,198.287689 
z"/>
<path fill="#2C5A95" opacity="1.000000" stroke="none" 
	d="
M446.819946,345.692261 
	C445.651581,345.326782 444.374451,344.676941 443.042297,343.718048 
	C444.228607,344.075287 445.469910,344.741577 446.819946,345.692261 
z"/>
<path fill="#2D71AD" opacity="1.000000" stroke="none" 
	d="
M504.315826,299.628845 
	C505.109985,298.750671 506.212463,297.904968 507.633087,297.101135 
	C506.842224,297.982452 505.733185,298.821899 504.315826,299.628845 
z"/>
<path fill="#3DA0DC" opacity="1.000000" stroke="none" 
	d="
M392.505981,210.382111 
	C391.481232,210.088577 390.289429,209.508453 389.039398,208.571960 
	C390.100433,208.842239 391.219666,209.468872 392.505981,210.382111 
z"/>
<path fill="#2C5A95" opacity="1.000000" stroke="none" 
	d="
M422.182343,331.149445 
	C421.883392,331.023285 421.916687,330.570709 421.947418,330.346008 
	C422.867371,330.569122 423.756622,331.016937 424.759277,331.753510 
	C424.075562,331.786713 423.278442,331.531158 422.182343,331.149445 
z"/>
<path fill="#2C5A95" opacity="1.000000" stroke="none" 
	d="
M457.912109,352.685577 
	C457.327667,352.683807 456.694885,352.413361 456.001587,351.875183 
	C456.581970,351.877289 457.222870,352.147095 457.912109,352.685577 
z"/>
<path fill="#2C5A95" opacity="1.000000" stroke="none" 
	d="
M453.065369,349.564148 
	C452.463379,349.574921 451.782410,349.308746 451.041962,348.752380 
	C451.650452,348.737213 452.318390,349.012207 453.065369,349.564148 
z"/>
<path fill="#2C5A95" opacity="1.000000" stroke="none" 
	d="
M449.980164,347.613403 
	C449.398895,347.603180 448.734619,347.330994 448.024963,346.768738 
	C448.618774,346.769623 449.257996,347.060516 449.980164,347.613403 
z"/>
<path fill="#3DA0DC" opacity="1.000000" stroke="none" 
	d="
M526.698730,115.090836 
	C526.483337,115.677795 525.962830,116.275894 525.105469,116.832016 
	C525.310303,116.227341 525.851929,115.664658 526.698730,115.090836 
z"/>
<path fill="#2C5A95" opacity="1.000000" stroke="none" 
	d="
M441.876251,342.713745 
	C441.328491,342.681946 440.696503,342.388489 440.009888,341.819122 
	C440.567505,341.846161 441.179779,342.149139 441.876251,342.713745 
z"/>
<path fill="#3DA0DC" opacity="1.000000" stroke="none" 
	d="
M548.165649,114.587952 
	C547.576782,114.592041 546.867004,114.319344 546.065430,113.759262 
	C546.663940,113.751640 547.354431,114.031395 548.165649,114.587952 
z"/>
<path fill="#2C5A95" opacity="1.000000" stroke="none" 
	d="
M427.931061,333.700684 
	C427.335236,333.680786 426.688812,333.381866 425.994751,332.799927 
	C426.591583,332.818512 427.235992,333.120087 427.931061,333.700684 
z"/>
<path fill="#2C5A95" opacity="1.000000" stroke="none" 
	d="
M433.011841,407.383881 
	C433.585297,407.384308 434.252014,407.639130 434.969482,408.176910 
	C434.381866,408.186005 433.743500,407.912170 433.011841,407.383881 
z"/>
<path fill="#2C5A95" opacity="1.000000" stroke="none" 
	d="
M460.425110,410.007874 
	C460.566864,409.420410 460.989502,408.762360 461.741699,408.122620 
	C461.616180,408.739716 461.161041,409.338470 460.425110,410.007874 
z"/>
<path fill="#2D71AD" opacity="1.000000" stroke="none" 
	d="
M484.252197,312.416443 
	C484.482208,311.939392 484.971039,311.497986 485.730347,311.105652 
	C485.504211,311.587189 485.007629,312.019623 484.252197,312.416443 
z"/>
<path fill="#2D71AD" opacity="1.000000" stroke="none" 
	d="
M481.248016,314.404358 
	C481.472717,313.916351 481.950012,313.479523 482.692139,313.098053 
	C482.471497,313.587463 481.986053,314.021515 481.248016,314.404358 
z"/>
<path fill="#3DA0DC" opacity="1.000000" stroke="none" 
	d="
M345.950684,249.815826 
	C346.087585,250.210190 346.068542,250.377151 346.007446,250.792603 
	C345.412170,250.548691 344.858917,250.056290 344.314453,249.271362 
	C344.813721,249.182053 345.304199,249.385223 345.950684,249.815826 
z"/>
<path fill="#2D71AD" opacity="1.000000" stroke="none" 
	d="
M489.236206,309.371094 
	C489.441376,308.891632 489.903839,308.447205 490.628326,308.030579 
	C490.424713,308.507660 489.959076,308.956879 489.236206,309.371094 
z"/>
<path fill="#2D71AD" opacity="1.000000" stroke="none" 
	d="
M492.235962,307.415161 
	C492.469330,306.923676 492.969727,306.488281 493.734802,306.100403 
	C493.500671,306.588989 493.001831,307.030090 492.235962,307.415161 
z"/>
<path fill="#3DA0DC" opacity="1.000000" stroke="none" 
	d="
M396.167419,212.602386 
	C395.588684,212.563187 394.860199,212.263901 394.055603,211.656494 
	C394.658875,211.679703 395.338257,212.011002 396.167419,212.602386 
z"/>
<path fill="#2D71AD" opacity="1.000000" stroke="none" 
	d="
M501.263611,301.556305 
	C501.497284,301.038025 502.007599,300.562744 502.801941,300.140625 
	C502.570679,300.662292 502.055481,301.130798 501.263611,301.556305 
z"/>
<path fill="#2D71AD" opacity="1.000000" stroke="none" 
	d="
M525.224976,286.428040 
	C525.460571,285.930328 525.956909,285.482056 526.724548,285.091492 
	C526.492493,285.591949 525.989136,286.034698 525.224976,286.428040 
z"/>
<path fill="#2D71AD" opacity="1.000000" stroke="none" 
	d="
M536.236633,279.497437 
	C536.462341,278.979309 536.962463,278.514435 537.737427,278.093231 
	C537.511841,278.608154 537.011475,279.079437 536.236633,279.497437 
z"/>
<path fill="#2D71AD" opacity="1.000000" stroke="none" 
	d="
M539.254395,277.530823 
	C539.475220,277.011078 539.963867,276.522766 540.731201,276.089539 
	C540.513977,276.617188 540.018127,277.089722 539.254395,277.530823 
z"/>
<path fill="#2B7BB9" opacity="1.000000" stroke="none" 
	d="
M374.874878,270.475403 
	C375.468781,270.555145 376.178131,270.911407 376.933777,271.597168 
	C376.316833,271.535126 375.653564,271.143524 374.874878,270.475403 
z"/>
<path fill="#2D71AD" opacity="1.000000" stroke="none" 
	d="
M445.004333,213.255890 
	C445.189392,213.104111 445.463196,213.234695 445.858459,213.605682 
	C445.667511,213.819580 445.371887,213.716965 445.004333,213.255890 
z"/>
<path fill="#2C5A95" opacity="1.000000" stroke="none" 
	d="
M552.777588,219.785400 
	C552.607544,219.800262 552.352966,219.603882 552.087708,219.156113 
	C552.309387,219.103012 552.514648,219.326157 552.777588,219.785400 
z"/>
<path fill="#2B7BB9" opacity="1.000000" stroke="none" 
	d="
M379.588379,273.409546 
	C379.826294,273.329987 380.239624,273.536926 380.764526,274.083008 
	C380.505341,274.180084 380.134583,273.938049 379.588379,273.409546 
z"/>
<path fill="#F0F2F5" opacity="1.000000" stroke="none" 
	d="
M736.970947,279.010406 
	C725.717346,279.008850 714.957764,279.008850 704.317932,279.008850 
	C703.229858,270.818878 710.776672,262.151611 718.458435,259.363220 
	C730.680969,254.926620 744.930725,261.469421 748.729614,273.643188 
	C749.864441,277.279785 749.619141,279.519287 744.957764,279.096741 
	C742.477966,278.871948 739.963684,279.027893 736.970947,279.010406 
z"/>
<path fill="#F0F2F5" opacity="1.000000" stroke="none" 
	d="
M1229.882812,293.433899 
	C1233.255371,293.749268 1238.516724,293.663116 1238.648193,294.442169 
	C1239.285278,298.220123 1239.268311,302.472595 1238.057495,306.078247 
	C1237.153931,308.769135 1234.442261,311.313660 1231.898071,312.902130 
	C1225.514648,316.887909 1218.437500,317.494537 1211.248047,315.204407 
	C1205.983643,313.527496 1202.903076,308.989258 1203.284668,303.907288 
	C1203.657593,298.941986 1207.564331,294.582153 1212.959473,294.031433 
	C1218.405762,293.475403 1223.921631,293.603027 1229.882812,293.433899 
z"/>
<path fill="#1F2C6A" opacity="1.000000" stroke="none" 
	d="
M642.736267,264.702301 
	C642.587830,285.395599 642.332214,305.664886 641.993713,325.932831 
	C641.936340,329.371063 638.424744,331.312866 633.426636,330.913635 
	C633.099121,330.887512 632.781067,330.758759 632.454651,330.699951 
	C620.976868,328.631805 620.978149,328.632233 620.979858,316.552521 
	C620.981262,306.730042 621.230713,296.899078 620.900757,287.087677 
	C620.620667,278.758606 619.565674,270.457977 619.096985,262.131042 
	C618.994019,260.301819 620.051270,258.433929 620.328918,256.547729 
	C620.531006,255.175323 620.399231,253.736755 620.264343,252.342392 
	C620.224976,251.936325 619.385376,251.583725 619.381470,251.201813 
	C619.321777,245.369263 619.339966,239.535919 619.339966,233.702774 
	C619.765503,233.665024 620.191040,233.627289 620.616516,233.589539 
	C620.852356,236.529587 621.088135,239.469650 621.384521,243.164948 
	C623.735046,242.407745 625.659973,241.616440 627.662537,241.186874 
	C630.046875,240.675415 632.752808,239.649597 634.869141,240.303635 
	C639.904358,241.859726 641.338806,240.025375 641.040771,235.387070 
	C641.003113,234.800537 641.345642,234.189575 642.582581,233.605133 
	C642.582581,236.674683 642.757629,239.756454 642.544128,242.811081 
	C642.164307,248.246246 641.389709,253.657257 641.127014,259.095123 
	C641.044861,260.795013 642.078369,262.548767 642.736267,264.702301 
z"/>
<path fill="#233070" opacity="1.000000" stroke="none" 
	d="
M1040.035400,238.965179 
	C1046.541382,237.376007 1053.596924,238.849854 1059.822021,235.383789 
	C1060.366821,235.080383 1062.249512,236.287354 1062.837402,237.218079 
	C1063.365601,238.054459 1062.975952,239.476303 1062.976196,240.639908 
	C1062.982056,266.907684 1062.986450,293.175476 1062.989136,319.443268 
	C1062.989258,320.606934 1063.067139,321.780579 1062.946533,322.932556 
	C1062.252441,329.555878 1061.718018,330.011261 1054.944214,330.017181 
	C1050.621704,330.020996 1046.299072,330.025757 1041.495605,329.568481 
	C1040.688110,299.059662 1040.361816,269.012421 1040.035400,238.965179 
z"/>
<path fill="#212A67" opacity="1.000000" stroke="none" 
	d="
M1039.973511,238.673248 
	C1040.361816,269.012421 1040.688110,299.059662 1041.030029,329.576202 
	C1040.487915,330.113403 1039.458984,330.295044 1039.443726,330.232117 
	C1039.215942,329.287537 1039.012085,328.310883 1039.011475,327.341644 
	C1038.992676,298.070038 1038.995972,268.798462 1039.005615,239.526855 
	C1039.005737,239.061005 1039.127808,238.595184 1039.192871,238.129333 
	C1039.432495,238.213333 1039.671997,238.297318 1039.973511,238.673248 
z"/>
<path fill="#233070" opacity="1.000000" stroke="none" 
	d="
M553.101746,224.109573 
	C553.334045,224.014038 553.568909,224.224686 553.799683,224.741577 
	C553.559753,224.841705 553.329285,224.631027 553.101746,224.109573 
z"/>
</svg>